<?xml version="1.0" encoding="UTF-8" standalone="no"?>
<svg
   version="1.1"
   width="1024"
   height="1024"
   id="svg70"
   sodipodi:docname="GPT image-2025-09-18-22_46_51.jpeg.svg"
   inkscape:version="1.4 (86a8ad7, 2024-10-11)"
   xmlns:inkscape="http://www.inkscape.org/namespaces/inkscape"
   xmlns:sodipodi="http://sodipodi.sourceforge.net/DTD/sodipodi-0.dtd"
   xmlns:xlink="http://www.w3.org/1999/xlink"
   xmlns="http://www.w3.org/2000/svg"
   xmlns:svg="http://www.w3.org/2000/svg">
  <defs
     id="defs70">
    <linearGradient
       id="linearGradient72"
       inkscape:collect="always">
      <stop
         style="stop-color:#01aecd;stop-opacity:1;"
         offset="0"
         id="stop72" />
      <stop
         style="stop-color:#fc2910;stop-opacity:1;"
         offset="1"
         id="stop73" />
    </linearGradient>
    <linearGradient
       inkscape:collect="always"
       xlink:href="#linearGradient72"
       id="linearGradient73"
       x1="512.16681"
       y1="712.43719"
       x2="512.31604"
       y2="680.35217"
       gradientUnits="userSpaceOnUse" />
  </defs>
  <sodipodi:namedview
     id="namedview70"
     pagecolor="#ffffff"
     bordercolor="#000000"
     borderopacity="0.25"
     inkscape:showpageshadow="2"
     inkscape:pageopacity="0.0"
     inkscape:pagecheckerboard="0"
     inkscape:deskcolor="#d1d1d1"
     inkscape:zoom="1.1845703"
     inkscape:cx="689.70157"
     inkscape:cy="562.65128"
     inkscape:window-width="2560"
     inkscape:window-height="1494"
     inkscape:window-x="-11"
     inkscape:window-y="-11"
     inkscape:window-maximized="1"
     inkscape:current-layer="svg70" />
  <path
     d="M0 0 C337.92 0 675.84 0 1024 0 C1024 337.92 1024 675.84 1024 1024 C686.08 1024 348.16 1024 0 1024 C0 686.08 0 348.16 0 0 Z "
     fill="#0E0D0E"
     transform="translate(0,0)"
     id="path1" />
  <path
     d="M0 0 C15.904995 14.530172 29.2460481 30.57457671 40.0234375 49.2421875 C41.20536795 51.28539014 42.45629321 53.28990857 43.765625 55.25390625 C44.31089844 54.238125 44.85617187 53.22234375 45.41796875 52.17578125 C50.26610927 43.27340495 55.42454283 35.18586063 61.765625 27.25390625 C62.39210938 26.42375 63.01859375 25.59359375 63.6640625 24.73828125 C75.13645184 9.9556768 88.99542789 -3.63189164 104.765625 -13.74609375 C105.43271484 -14.17712402 106.09980469 -14.6081543 106.78710938 -15.05224609 C143.01005262 -38.13632475 187.09255219 -43.81257245 228.88378906 -35.09570312 C239.24315188 -32.65939039 250.38867533 -29.93254287 259.765625 -24.74609375 C260.095625 -24.08609375 260.425625 -23.42609375 260.765625 -22.74609375 C246.90069131 -17.30703547 232.76639228 -12.8547359 218.55151367 -8.42871094 C199.99162891 -2.63842373 181.57395947 3.5084506 164.078125 12.06640625 C163.03342041 12.57429688 161.98871582 13.0821875 160.91235352 13.60546875 C136.99684136 25.4230197 115.46061201 41.2386371 96.765625 60.25390625 C97.34715332 59.98763428 97.92868164 59.7213623 98.52783203 59.44702148 C122.43429803 48.57895775 147.16001631 39.12358243 173.76953125 39.0859375 C175.03095192 39.0809449 175.03095192 39.0809449 176.31785583 39.07585144 C178.09023497 39.0708163 179.86262348 39.06844205 181.63500977 39.06860352 C184.29655316 39.06643201 186.95767112 39.04828096 189.61914062 39.02929688 C225.54325662 38.9078531 260.27736468 51.86208584 287.765625 75.25390625 C289.03019531 76.32705078 289.03019531 76.32705078 290.3203125 77.421875 C292.85695968 79.64650647 295.31630755 81.93350024 297.765625 84.25390625 C298.27625488 84.72666992 298.78688477 85.19943359 299.31298828 85.68652344 C307.57087804 93.36314801 314.38786503 101.29045948 319.765625 111.25390625 C319.765625 111.91390625 319.765625 112.57390625 319.765625 113.25390625 C309.7040075 114.34969693 300.42254275 111.42883741 290.81719971 108.83792114 C287.91199131 108.05532579 285.00261813 107.29056863 282.09130859 106.53100586 C278.30090381 105.54206735 274.5114877 104.54954117 270.72314453 103.55273438 C237.80093809 94.90963978 205.33451565 92.06884669 171.41113281 92.12353516 C167.85039909 92.12924228 164.28974063 92.12593377 160.72900963 92.11996269 C157.93878638 92.11630951 155.14858031 92.11751705 152.35835648 92.12009048 C150.42114461 92.12105896 148.483932 92.11808282 146.54672241 92.11495972 C138.23853057 92.13662826 130.04388636 92.55884104 121.765625 93.25390625 C122.68545166 93.43236084 123.60527832 93.61081543 124.55297852 93.79467773 C153.17111191 99.44577243 178.54156079 112.58336213 200.765625 131.25390625 C201.45011719 131.82238281 202.13460938 132.39085937 202.83984375 132.9765625 C217.91622499 146.71750671 226.83861427 169.55858523 227.88964844 189.62133789 C228.31879685 203.77661297 227.18236381 217.31450204 224.765625 231.25390625 C223.775625 231.25390625 222.785625 231.25390625 221.765625 231.25390625 C219.94478505 229.06344487 218.32077473 226.90040332 216.703125 224.56640625 C215.71336582 223.18018476 214.72245882 221.79478218 213.73046875 220.41015625 C212.98385986 219.36021484 212.98385986 219.36021484 212.22216797 218.2890625 C206.11484545 209.75559945 199.60471371 201.74648432 192.421875 194.09765625 C189.96138655 191.46348626 187.5788774 188.77677166 185.203125 186.06640625 C181.45878351 181.89566288 177.47765019 178.13505462 173.26171875 174.4453125 C171.68794855 173.06364571 170.13496372 171.65758224 168.61328125 170.21875 C134.71624407 138.34719483 85.32968707 108.47888572 37.484375 109.84765625 C14.80438432 111.08530922 -6.48161212 120.6649583 -26.234375 131.25390625 C-26.82379883 131.5679541 -27.41322266 131.88200195 -28.02050781 132.20556641 C-49.86242322 143.95396157 -71.15733872 159.60138542 -88.421875 177.44140625 C-90.22197013 179.24150138 -92.09701114 180.86853656 -94.046875 182.50390625 C-108.15371032 194.71702243 -120.12209926 210.46059578 -130.27709961 226.0222168 C-130.73866455 226.70711182 -131.20022949 227.39200684 -131.67578125 228.09765625 C-132.07482666 228.70802734 -132.47387207 229.31839844 -132.88500977 229.94726562 C-134.234375 231.25390625 -134.234375 231.25390625 -138.234375 231.25390625 C-139.74154614 220.9447863 -140.60735435 210.82077175 -140.60498047 200.39941406 C-140.6093753 198.25376079 -140.64596555 196.11014008 -140.68359375 193.96484375 C-140.78944544 181.07197876 -138.69659688 168.41351954 -132.484375 156.94140625 C-132.13858398 156.28172852 -131.79279297 155.62205078 -131.43652344 154.94238281 C-115.95545944 126.12767348 -85.18586133 107.19081179 -54.63818359 97.42382812 C-49.53643697 95.90103261 -44.4009539 94.53783506 -39.234375 93.25390625 C-48.10959902 92.36469751 -56.90771645 92.0801392 -65.82421875 92.05078125 C-66.50516665 92.04795387 -67.18611454 92.0451265 -67.88769722 92.04221344 C-71.50675954 92.02732376 -75.12578321 92.01803556 -78.74487305 92.01367188 C-81.66590166 92.00933168 -84.58662747 91.99560055 -87.50756836 91.97265625 C-112.21196794 91.78277604 -136.6826273 92.82620355 -160.984375 97.75390625 C-162.21333496 97.99455811 -163.44229492 98.23520996 -164.70849609 98.4831543 C-177.99723599 101.16601046 -191.06062163 104.83219432 -204.08886719 108.55859375 C-213.21472707 111.13687045 -221.69297628 113.09341083 -231.234375 113.25390625 C-229.56411897 102.23416419 -222.03460139 95.72036701 -214.234375 88.25390625 C-210.91552715 84.97312155 -210.91552715 84.97312155 -207.70703125 81.5859375 C-185.61348315 57.7787624 -146.47738677 40.48103738 -114.27511597 39.17440796 C-94.03147689 38.56408919 -73.99753628 38.3037564 -54.234375 43.25390625 C-53.51910645 43.41987305 -52.80383789 43.58583984 -52.06689453 43.75683594 C-37.84669646 47.10394387 -24.55848511 53.39781311 -11.234375 59.25390625 C-44.45586116 17.1959479 -103.24876558 0.74234794 -152.08056641 -14.38916016 C-153.1737468 -14.72827423 -154.26692719 -15.06738831 -155.39323425 -15.41677856 C-157.46398556 -16.05835994 -159.53533725 -16.6980078 -161.6073761 -17.3354187 C-163.00429939 -17.76783371 -163.00429939 -17.76783371 -164.42944336 -18.20898438 C-165.23989609 -18.45861938 -166.05034882 -18.70825439 -166.88536072 -18.9654541 C-169.38014458 -19.79453684 -171.80321428 -20.74704436 -174.234375 -21.74609375 C-173.234375 -24.74609375 -173.234375 -24.74609375 -170.55859375 -26.17578125 C-155.64144977 -32.10418434 -140.22232842 -36.07338816 -124.234375 -37.74609375 C-123.19539063 -37.85695313 -122.15640625 -37.9678125 -121.0859375 -38.08203125 C-76.69342227 -42.13764375 -33.47856796 -29.96377778 0 0 Z "
     fill="#00AFCE"
     transform="translate(468.234375,144.74609375)"
     id="path2" />
  <path
     d="M0 0 C79.53 0 159.06 0 241 0 C244.45113354 18.40604554 244.45113354 18.40604554 245.31640625 25.828125 C245.41839828 26.66809021 245.52039032 27.50805542 245.62547302 28.37347412 C245.83700502 30.12384983 246.04608541 31.8745236 246.25268555 33.62548828 C246.56062381 36.23410636 246.87630754 38.84169422 247.19335938 41.44921875 C247.81892582 46.63023039 248.41538424 51.81422238 249 57 C249.14624313 58.28046204 249.14624313 58.28046204 249.29544067 59.58679199 C250.50588835 70.31272801 251.35087699 80.93075851 251.31567383 91.72900391 C251.31247412 93.76647766 251.33630523 95.80254256 251.36132812 97.83984375 C251.47339596 121.24561326 244.22121275 142.28543574 227.75 159.25 C203.36699975 183.63300025 168.205989 195.59323422 134 196 C133.06075684 196.01901367 132.12151367 196.03802734 131.15380859 196.05761719 C89.9563072 196.83098158 46.57915876 190.58415281 15.296875 161.26708984 C3.04715331 149.42542287 -5.45379202 135.74813978 -9 119 C-9.17772949 118.18668213 -9.35545898 117.37336426 -9.53857422 116.53540039 C-10.97732572 109.39132541 -11.31192162 102.52552582 -11.25 95.25 C-11.24250732 94.06317627 -11.23501465 92.87635254 -11.22729492 91.65356445 C-11.0139843 73.83914833 -8.86027772 56.3297303 -6.5625 38.6875 C-6.45926422 37.89378998 -6.35602844 37.10007996 -6.24966431 36.28231812 C-5.09687016 27.48590102 -3.83803618 18.71202404 -2.40234375 9.95703125 C-2.21521568 8.80263802 -2.21521568 8.80263802 -2.02430725 7.62492371 C-1.12156554 2.24313108 -1.12156554 2.24313108 0 0 Z "
     fill="#FCCC3E"
     transform="translate(392,396)"
     id="path3" />
  <path
     d="m 0,0 c 3.6458169,-0.02887512 7.2916046,-0.04675585 10.9375,-0.0625 l 3.154297,-0.02539062 2.998047,-0.0097656 2.777099,-0.01586914 C 22,0 22,0 23,1 c 0.243788,1.5051104 0.426879,3.0201119 0.584961,4.5366211 l 0.315399,2.964508 0.334015,3.2723089 0.358673,3.414154 c 0.390265,3.728671 0.773831,7.457996 1.156952,11.187408 0.26691,2.570657 0.534001,5.141295 0.80127,7.711914 C 28.369896,51.636806 30.139901,69.191659 31.875,86.75 l 0.330444,3.325867 c 0.306666,3.09424 0.609848,6.188799 0.911743,9.283508 l 0.273713,2.754245 0.24533,2.54165 0.214325,2.19086 C 34.01565,109.22555 34,111.61486 34,114 h 125 c 2.40924,17.46696 4.78145,34.84774 6.5625,52.375 l 0.31381,3.04904 c 1.47471,14.36633 2.80472,28.741 3.93619,43.13846 l 0.19168,2.38275 c 2.96674,37.30448 -1.62687,70.31407 -26.18777,99.66412 C 134.77594,324.98738 124.63644,333.65677 113,341 l -1.79932,1.13672 C 91.277635,354.49439 68.92236,360.99853 45.9375,364.8125 l -2.23291,0.37622 c -4.189756,0.63659 -8.247462,0.86572 -12.487549,0.84131 L 28.247086,366.01689 26,366 c 0.01487,8.01509 0.05646,16.02941 0.132091,24.04414 0.03428,3.7217 0.05938,7.44298 0.06347,11.16484 0.0043,3.59248 0.03273,7.18404 0.07787,10.77623 0.01298,1.36985 0.01728,2.73981 0.01272,4.10972 -0.0049,1.91994 0.02404,3.83986 0.05442,5.75956 l 0.02019,3.31073 C 27.209536,428.92921 28.843549,429.91929 32,432 l 1.800781,1.26562 L 35.3125,434.25 38,436 c -2.673457,3.66363 -5.075386,5.77252 -9,8 l -1,2 h -2 v -3 l -2.277344,0.5 c -5.108939,0.6862 -10.137906,0.56479 -15.285156,0.5 -2.0429144,-0.0256 -4.0858931,-0.0466 -6.1289062,-0.0625 l -2.72485357,-0.0352 C -3.0257094,443.9266 -3.0257094,443.9266 -5.6247559,444.5625 -8.8475886,445.15612 -11.00162,444.18541 -14,443 c 0,-3 -2.163875,-3.29847 -0.163875,-5.48597 l 0.35844,-0.24555 L -16,438 c 3.227422,-3.64839 6.9917482,-6.05371 11.0742188,-8.63281 C -2.87215,428.13633 -2.87215,428.13633 -2,426 c 0.1199408,-1.90908 0.1773129,-3.82222 0.2053223,-5.73486 l 0.06044,-3.63968 0.050644,-3.94577 c 0.02057,-1.34237 0.041566,-2.68472 0.062973,-4.02707 0.055216,-3.5345 0.1046273,-7.06907 0.1528473,-10.60367 0.050218,-3.60621 0.1059027,-7.21234 0.1611328,-10.81848 C -1.1990648,380.15372 -1.0976186,373.07689 -1,366 l -2.013916,0.0181 -2.6774902,0.0141 -2.6389161,0.0181 C -12.605653,365.96972 -16.776883,365.38684 -21,364.75 l -2.749023,-0.40894 C -49.024226,360.44833 -73.9131,352.93785 -95,338 l -2.996094,-2.09766 C -122.32089,318.06813 -138.62202,295.61433 -145,266 l -0.68359,-3.17188 C -153.96788,215.97907 -140.59146,160.14022 -134,114 h 123 v -11 c 0.155793,-2.37736 0.349657,-4.752767 0.594971,-7.122559 l 0.39534,-3.899993 c 0.145044,-1.375307 0.2902041,-2.750602 0.4354702,-4.125886 0.1502382,-1.461752 0.2999817,-2.923556 0.4492646,-4.385406 0.3934182,-3.83948 0.7934809,-7.678238 1.1950226,-11.516876 0.3966673,-3.802994 0.7870853,-7.606627 1.1779785,-11.410218 0.6130101,-5.958464 1.2308233,-11.91641 1.8520508,-17.874023 0.5970677,-5.726335 1.1846908,-11.453548 1.7646484,-17.181641 0.1370718,-1.347714 0.2742112,-2.695421 0.4114227,-4.043121 0.2541902,-2.500601 0.506587,-5.001385 0.7568665,-7.50238 l 0.3426971,-3.358307 0.293869,-2.9151918 C -1.0091054,5.0734276 -0.54685134,2.5519971 0,0 Z m -108,142 c -2.5161,10.74312 -2.5161,10.74312 -4.31641,21.54687 l -0.30906,2.24347 c -0.31791,2.31917 -0.62748,4.63936 -0.93703,6.95966 -0.20978,1.53132 -0.42006,3.06257 -0.63086,4.59375 -1.04092,7.61436 -2.01762,15.23514 -2.91992,22.86719 l -0.24477,2.06878 c -3.52533,30.33923 -5.33873,64.12137 14.23305,89.65778 22.584432,28.06728 56.112147,40.97901 91.125,45.0625 40.177133,4.07812 86.282925,0.54547 119.48047,-24.9375 C 127.39664,295.75903 139.4171,277.74394 143,252 c 0.42989,-4.92697 0.52385,-9.80576 0.5,-14.75 l -0.002,-2.06192 c -0.0762,-19.33368 -2.6705,-38.48563 -5.16516,-57.62766 -0.32007,-2.46454 -0.63419,-4.92975 -0.9458,-7.39538 -0.83752,-6.62219 -1.69084,-13.24229 -2.58985,-19.85645 l -0.3955,-2.91235 C 134.04099,144.86435 134.04099,144.86435 133,142 Z"
     fill="#fc2910"
     transform="translate(500,254)"
     id="path4"
     sodipodi:nodetypes="cccccccccccccccccccccccccccccccccccccccccccccccsccccccccccccccccccccccccccccccccccsccccccccccccccccccccccccc" />
  <path
     d="M0 0 C-1.375 2 -1.375 2 -3 4 C-3.66 4 -4.32 4 -5 4 C-4.505 5.485 -4.505 5.485 -4 7 C-2.52168779 7.19412181 -1.04230684 7.38012131 0.4375 7.5625 C1.26121094 7.66691406 2.08492188 7.77132812 2.93359375 7.87890625 C3.61550781 7.91886719 4.29742187 7.95882812 5 8 C5.33 7.67 5.66 7.34 6 7 C8.14558827 6.91224395 10.29404421 6.89304781 12.44140625 6.90234375 C13.74658203 6.90556641 15.05175781 6.90878906 16.39648438 6.91210938 C17.7851569 6.92046599 19.17382877 6.92893095 20.5625 6.9375 C21.95507656 6.94251334 23.34765481 6.94707653 24.74023438 6.95117188 C28.1601987 6.96300566 31.58007844 6.9794912 35 7 C35 7.99 35 8.98 35 10 C35.66 10 36.32 10 37 10 C37.37125 9.071875 37.37125 9.071875 37.75 8.125 C39.25002309 5.57496075 40.3697249 5.23777652 43 4 C44.35548934 2.68919712 45.69153074 1.35774216 47 0 C50.06642217 1.66154153 53.12778423 3.33217042 56.18652344 5.0078125 C57.40772292 5.67595395 58.62974582 6.34259235 59.85253906 7.0078125 C69.40707791 12.21149477 78.84411361 17.60909704 88.21533203 23.13531494 C89.95341185 24.16003307 91.69347666 25.18138199 93.43359375 26.20263672 C113.76668261 38.2522072 113.76668261 38.2522072 117 45 C117.93342802 50.09034835 118.14363114 55.0793359 118.12939453 60.23925781 C118.13202301 61.4286068 118.13202301 61.4286068 118.13470459 62.64198303 C118.13908123 65.24571974 118.13619877 67.84938767 118.1328125 70.453125 C118.13348701 72.27764906 118.13445826 74.10217303 118.13571167 75.92669678 C118.1371832 79.74622454 118.13505258 83.56572887 118.13037109 87.38525391 C118.12469038 92.25474554 118.12794576 97.12418184 118.13394356 101.99367142 C118.13757774 105.7617229 118.13639724 109.52976152 118.13381577 113.29781342 C118.13315354 115.09176388 118.13395001 116.88571556 118.13629532 118.67966461 C118.16557743 147.38464357 118.16557743 147.38464357 112 154 C104.81161786 159.89384299 96.89036724 164.57580086 88.8125 169.125 C87.09512463 170.10303864 85.37775805 171.08109331 83.66104126 172.06028748 C82.49365208 172.72590055 81.32582514 173.39074644 80.15756226 174.05482483 C75.32087055 176.80631513 70.52014705 179.6162498 65.72436523 182.43823242 C56.80021939 187.68665276 47.82505661 192.8290396 38.75 197.8125 C37.36506348 198.57759888 37.36506348 198.57759888 35.95214844 199.3581543 C34.66872559 200.05678589 34.66872559 200.05678589 33.359375 200.76953125 C32.61139648 201.17792236 31.86341797 201.58631348 31.09277344 202.00708008 C25.93127791 204.45596042 20.60144667 204.93834976 15 204 C3.23039205 199.48057978 -7.60271804 192.24809508 -18.41796875 185.859375 C-23.00041825 183.15834616 -27.60674224 180.50606379 -32.23828125 177.890625 C-70.00886743 156.5542119 -70.00886743 156.5542119 -73.1875 147.6875 C-74.69483038 140.84653902 -75.15101392 134.22390296 -75.16113281 127.24829102 C-75.16858017 125.99538269 -75.16858017 125.99538269 -75.17617798 124.71716309 C-75.19067305 121.97940216 -75.19757879 119.24169909 -75.203125 116.50390625 C-75.20736607 115.09201177 -75.20736607 115.09201177 -75.21169281 113.65159416 C-75.22663077 108.67454629 -75.23589543 103.69752703 -75.24023438 98.72045898 C-75.24572417 93.59847634 -75.26977847 88.47675881 -75.29820633 83.35485935 C-75.31688372 79.39730575 -75.32204093 75.43981555 -75.32357025 71.4822216 C-75.32658363 69.59449749 -75.33456737 67.70677415 -75.34775543 65.8190937 C-75.36493011 63.17289423 -75.36290855 60.52733706 -75.35644531 57.88110352 C-75.3656601 57.11251511 -75.37487488 56.3439267 -75.3843689 55.55204773 C-75.33343487 48.84966362 -74.22011904 42.38680529 -69.5546875 37.37109375 C-64.68482911 33.86593171 -59.34227066 31.00817278 -54.125 28.0625 C-52.387711 27.07162459 -50.65042997 26.08073472 -48.91374207 25.08880615 C-47.72469839 24.40992438 -46.53525211 23.7317473 -45.34541321 23.05426025 C-38.19722989 18.9820275 -31.10321475 14.81731769 -24.00634766 10.65649414 C-3.12204623 -1.56102311 -3.12204623 -1.56102311 0 0 Z "
     fill="#01AECD"
     transform="translate(491,690)"
     id="path5" />
  <path
     d="M0 0 C44.77704882 -0.94821986 94.12882671 1.51783852 128.55859375 33.6015625 C129.03425781 34.06304688 129.50992188 34.52453125 130 35 C133.17239059 33.59938605 135.23320406 31.9294045 137.6875 29.5 C170.63174578 -0.16058729 220.36097246 -0.35881437 262 0 C262.71345544 25.0843614 259.29095874 47.97693819 241.625 67.25 C217.77297326 92.46037945 183.62538655 105.61642056 149.11328125 106.9453125 C147.74221926 106.96579192 146.37111798 106.98369514 145 107 C144.06075684 107.01901367 143.12151367 107.03802734 142.15380859 107.05761719 C100.9563072 107.83098158 57.57915876 101.58415281 26.296875 72.26708984 C14.11484618 60.49086079 5.41624618 46.72162606 2 30 C1.79761719 29.19175781 1.59523438 28.38351562 1.38671875 27.55078125 C-0.65367237 18.48700301 -0.17220444 9.23207142 0 0 Z "
     fill="#00ADCE"
     transform="translate(381,485)"
     id="path6" />
  <path
     d="M0 0 C3.27250975 0.92773612 5.70282098 2.14032033 8.60205078 3.91235352 C9.6581958 4.54947266 10.71434082 5.1865918 11.80249023 5.84301758 C12.35893219 6.18449829 12.91537415 6.525979 13.48867798 6.87780762 C16.46680202 8.70521524 19.46335309 10.50202242 22.45751953 12.30297852 C23.07831894 12.67752167 23.69911835 13.05206482 24.33872986 13.43795776 C31.88531906 17.9790699 39.54828182 22.31556481 47.21514893 26.64944458 C48.92184787 27.61438159 50.62720772 28.5816859 52.33251953 29.54907227 C53.30229736 30.09660156 54.2720752 30.64413086 55.27124023 31.20825195 C63.77281409 36.23434889 63.77281409 36.23434889 65.09423828 38.87719727 C65.23750308 41.05495978 65.31640096 43.23704958 65.36645508 45.41894531 C65.39076851 46.42664223 65.39076851 46.42664223 65.41557312 47.45469666 C65.55585105 53.65536996 65.63391261 59.85745952 65.69449139 66.05937481 C65.73545667 70.22466889 65.79579085 74.3876106 65.90356445 78.55175781 C66.00748634 82.58084788 66.06191869 86.60784138 66.08194923 90.63819313 C66.09785309 92.17057751 66.13102063 93.70288753 66.18210411 95.23450279 C66.56141533 107.18124659 66.56141533 107.18124659 62.99890137 111.29925537 C60.44163212 113.12243721 57.92746342 114.53116849 55.09423828 115.87719727 C54.07861816 116.50480957 53.06299805 117.13242187 52.01660156 117.77905273 C51.1579248 118.2626123 50.29924805 118.74617187 49.41455078 119.24438477 C48.41641357 119.8122168 47.41827637 120.38004883 46.38989258 120.96508789 C45.34357666 121.55483398 44.29726074 122.14458008 43.21923828 122.75219727 C35.84827535 126.93445601 28.53823891 131.17863046 21.34814453 135.66625977 C20.71289856 136.06078339 20.07765259 136.45530701 19.42315674 136.86178589 C15.67907857 139.18766159 15.67907857 139.18766159 11.95391846 141.54364014 C10.24174715 142.63618747 8.51781714 143.71024063 6.79345703 144.78344727 C5.32138794 145.71640625 5.32138794 145.71640625 3.81958008 146.66821289 C0.56814989 148.11057447 -0.58757548 148.0521722 -3.90576172 146.87719727 C-5.84103314 145.9226506 -7.73868312 144.89010636 -9.60498047 143.80688477 C-10.71969727 143.16477051 -11.83441406 142.52265625 -12.98291016 141.86108398 C-14.18649608 141.15835361 -15.38994334 140.45538569 -16.59326172 139.75219727 C-17.83673047 139.03170985 -19.08055066 138.31182866 -20.32470703 137.5925293 C-22.89895775 136.10329437 -25.47102389 134.61037182 -28.04199219 133.11547852 C-31.76740248 130.95275251 -35.50856386 128.81852253 -39.25341797 126.68969727 C-40.4264721 126.02080167 -41.59940711 125.35169714 -42.7722168 124.68237305 C-44.97201549 123.4274767 -47.17358382 122.17567567 -49.37719727 120.92749023 C-50.38177979 120.35144043 -51.3863623 119.77539062 -52.42138672 119.18188477 C-53.29053711 118.68672363 -54.1596875 118.1915625 -55.05517578 117.68139648 C-56.46621582 116.78831787 -56.46621582 116.78831787 -57.90576172 115.87719727 C-58.59457932 115.55641205 -59.28339691 115.23562683 -59.99308777 114.90512085 C-62.59411025 113.45719008 -64.11798943 112.27600332 -65.90576172 109.87719727 C-67.09700914 104.49223959 -66.95992004 99.16182001 -66.86279297 93.68188477 C-66.86056161 92.08578638 -66.8611492 90.48968179 -66.86442566 88.89358521 C-66.86268593 85.55587854 -66.83366167 82.21989762 -66.78393555 78.88256836 C-66.7214637 74.60696666 -66.71667487 70.3337116 -66.73091602 66.05775261 C-66.7373288 62.7650123 -66.71857072 59.47280178 -66.69165611 56.1801796 C-66.6807872 54.60376228 -66.67649779 53.02728526 -66.6789341 51.45083237 C-66.67750536 49.24792332 -66.64348948 47.04789472 -66.6003418 44.84545898 C-66.58731522 43.59336639 -66.57428864 42.3412738 -66.56086731 41.05123901 C-65.90576172 37.87719727 -65.90576172 37.87719727 -63.53268433 35.54698181 C-60.78701167 33.80171465 -58.04026741 32.11328023 -55.20654297 30.51391602 C-54.09150391 29.88122803 -52.97646484 29.24854004 -51.82763672 28.59667969 C-51.23917969 28.26542084 -50.65072266 27.93416199 -50.04443359 27.59286499 C-48.19249149 26.55018816 -46.34364731 25.50220919 -44.49560547 24.45263672 C-41.92686837 22.99385004 -39.3572805 21.53658076 -36.78710938 20.08032227 C-30.64678735 16.59807913 -24.5246272 13.08446786 -18.40576172 9.56469727 C-17.30917236 8.93716553 -16.21258301 8.30963379 -15.08276367 7.66308594 C-13.55655396 6.78487183 -13.55655396 6.78487183 -11.99951172 5.88891602 C-10.66436523 5.12260864 -10.66436523 5.12260864 -9.30224609 4.34082031 C-6.88143634 2.96322891 -6.88143634 2.96322891 -4.96240234 1.12646484 C-2.90576172 -0.12280273 -2.90576172 -0.12280273 0 0 Z "
     fill="#0E0D0E"
     transform="translate(512.90576171875,712.122802734375)"
     id="path7" />
  <path
     d="M0 0 C0.66 0.33 1.32 0.66 2 1 C0.625 3 0.625 3 -1 5 C-1.66 5 -2.32 5 -3 5 C-2.505 6.485 -2.505 6.485 -2 8 C-0.52168779 8.19412181 0.95769316 8.38012131 2.4375 8.5625 C3.26121094 8.66691406 4.08492188 8.77132812 4.93359375 8.87890625 C5.61550781 8.91886719 6.29742187 8.95882812 7 9 C7.33 8.67 7.66 8.34 8 8 C10.14558827 7.91224395 12.29404421 7.89304781 14.44140625 7.90234375 C15.74658203 7.90556641 17.05175781 7.90878906 18.39648438 7.91210938 C19.7851569 7.92046599 21.17382877 7.92893095 22.5625 7.9375 C23.95507656 7.94251334 25.34765481 7.94707653 26.74023438 7.95117188 C30.1601987 7.96300566 33.58007844 7.9794912 37 8 C37 8.99 37 9.98 37 11 C37.66 11 38.32 11 39 11 C39.37125 10.071875 39.37125 10.071875 39.75 9.125 C41.25002309 6.57496075 42.3697249 6.23777652 45 5 C46.35548934 3.68919712 47.69153074 2.35774216 49 1 C55.74663189 4.65566398 62.47168418 8.35058117 69.1875 12.0625 C69.93499512 12.4735498 70.68249023 12.88459961 71.45263672 13.30810547 C73.64486785 14.52236089 75.82502386 15.75512203 78 17 C78.74588379 17.42265137 79.49176758 17.84530273 80.26025391 18.28076172 C80.97487793 18.70244629 81.68950195 19.12413086 82.42578125 19.55859375 C83.06555908 19.93169678 83.70533691 20.3047998 84.36450195 20.68920898 C86.30267069 22.24257933 87.04617455 23.73102885 88 26 C86.515 26.495 86.515 26.495 85 27 C84.01 25.515 84.01 25.515 83 24 C82.319375 24.28875 81.63875 24.5775 80.9375 24.875 C77.66724423 26.12743838 74.37762514 27.07882951 71 28 C70.2575 28.2475 69.515 28.495 68.75 28.75 C67 29 67 29 64 27 C63.01 27.66 62.02 28.32 61 29 C59.02089395 28.44844586 57.04201842 27.89597211 55.06640625 27.33203125 C51.65364357 26.78366674 49.72442425 28.05398268 47 30 C45.59533047 32.05093145 45.59533047 32.05093145 45 34 C39.4813286 32.40758947 34.92348831 29.71208998 30.12304688 26.65820312 C27.54414905 25.10182557 25.58448956 24.00463145 22.53515625 23.98046875 C18.92994564 25.43033003 15.76699128 27.41041944 12.5 29.5 C4.77149423 34.4431829 4.77149423 34.4431829 0 35 C-1.33542939 35.32483418 -2.66961551 35.6550855 -4 36 C-5.25664978 33.09399739 -6 31.20395416 -6 28 C-6.66 28 -7.32 28 -8 28 C-8.66 26.02 -9.32 24.04 -10 22 C-10.66 22.20625 -11.32 22.4125 -12 22.625 C-16.09630108 23.13703763 -19.04235979 22.14033701 -23 21 C-23 21.66 -23 22.32 -23 23 C-26.96 22.67 -30.92 22.34 -35 22 C-35 21.01 -35 20.02 -35 19 C-31.14337873 16.77133005 -27.28384216 14.54781933 -23.42163086 12.32885742 C-22.11061428 11.57470429 -20.80037707 10.81919452 -19.4909668 10.06225586 C-17.59892279 8.96883462 -15.70404558 7.88046935 -13.80859375 6.79296875 C-12.67220459 6.1383667 -11.53581543 5.48376465 -10.36499023 4.80932617 C-6.93466936 2.96487228 -3.64510824 1.36764572 0 0 Z "
     fill="#8B6960"
     transform="translate(489,689)"
     id="path8" />
  <path
     d="M0 0 C0.33 0.66 0.66 1.32 1 2 C6.445 1.505 6.445 1.505 12 1 C12 1.66 12 2.32 12 3 C13.10408203 3.09087891 13.10408203 3.09087891 14.23046875 3.18359375 C15.20628906 3.26738281 16.18210937 3.35117187 17.1875 3.4375 C18.63189453 3.55931641 18.63189453 3.55931641 20.10546875 3.68359375 C22.78956298 3.97699676 25.36127154 4.43772061 28 5 C29.5159375 5.2475 29.5159375 5.2475 31.0625 5.5 C34 6 34 6 35.83984375 6.50390625 C39.29876844 7.29827051 42.80902698 7.39289048 46.34375 7.62109375 C49 8 49 8 51.08203125 9.05078125 C53.40804933 10.20194702 54.63848666 10.10286888 57.1875 9.75 C57.88230469 9.66234375 58.57710937 9.5746875 59.29296875 9.484375 C62.40043044 8.92835011 65.46651808 8.2403251 68.54516602 7.54394531 C71.00150708 6.99966606 73.46276132 6.49392105 75.9296875 6 C76.744375 5.835 77.5590625 5.67 78.3984375 5.5 C80.07200493 5.16211888 81.74652019 4.82890401 83.421875 4.5 C84.22882813 4.335 85.03578125 4.17 85.8671875 4 C86.59019043 3.855625 87.31319336 3.71125 88.05810547 3.5625 C90.29683527 3.01971398 90.29683527 3.01971398 93 1 C97.29493731 1.3135523 100.50770547 3.17776205 104.1875 5.3125 C105.23292969 5.90675781 106.27835938 6.50101563 107.35546875 7.11328125 C109.96319793 8.97374387 110.93390978 10.03718486 112 13 C111.01 13.33 110.02 13.66 109 14 C108.01 12.515 108.01 12.515 107 11 C106.319375 11.28875 105.63875 11.5775 104.9375 11.875 C101.66724423 13.12743838 98.37762514 14.07882951 95 15 C94.2575 15.2475 93.515 15.495 92.75 15.75 C91 16 91 16 88 14 C87.01 14.66 86.02 15.32 85 16 C83.02089395 15.44844586 81.04201842 14.89597211 79.06640625 14.33203125 C75.65364357 13.78366674 73.72442425 15.05398268 71 17 C69.59533047 19.05093145 69.59533047 19.05093145 69 21 C63.4813286 19.40758947 58.92348831 16.71208998 54.12304688 13.65820312 C51.54414905 12.10182557 49.58448956 11.00463145 46.53515625 10.98046875 C42.92994564 12.43033003 39.76699128 14.41041944 36.5 16.5 C28.77149423 21.4431829 28.77149423 21.4431829 24 22 C22.66457061 22.32483418 21.33038449 22.6550855 20 23 C18.74335022 20.09399739 18 18.20395416 18 15 C17.34 15 16.68 15 16 15 C15.34 13.02 14.68 11.04 14 9 C13.34 9.20625 12.68 9.4125 12 9.625 C7.90369892 10.13703763 4.95764021 9.14033701 1 8 C1 8.66 1 9.32 1 10 C-2.96 9.67 -6.92 9.34 -11 9 C-11 8.01 -11 7.02 -11 6 C-7.37 4.02 -3.74 2.04 0 0 Z "
     fill="#647D81"
     transform="translate(465,702)"
     id="path9" />
  <path
     d="M0 0 C0.33 0.33 0.66 0.66 1 1 C3.97095452 1.28707076 6.94222256 1.44862618 9.921875 1.62109375 C12.97072905 1.99639685 15.18173772 2.83288657 18 4 C20.59256489 4.4821537 20.59256489 4.4821537 23.1875 4.6875 C24.47720703 4.81705078 24.47720703 4.81705078 25.79296875 4.94921875 C28.04348752 5.17311856 28.04348752 5.17311856 30 4 C31.52526288 3.95118291 33.05273462 3.96315683 34.578125 4.0078125 C35.49207031 4.02457031 36.40601563 4.04132812 37.34765625 4.05859375 C39.26713129 4.10251175 41.18644101 4.15446394 43.10546875 4.21484375 C48.59992534 4.29961096 52.18529778 3.94900511 57 1 C58.65740715 0.62331656 60.32345271 0.27942455 62 0 C62.66 -0.33 63.32 -0.66 64 -1 C65.32 -0.01 66.64 0.98 68 2 C63.52315329 5.18736956 59.10033762 6.05172658 53.8125 7.0625 C52.53656982 7.31737183 52.53656982 7.31737183 51.23486328 7.57739258 C49.56342031 7.91056155 47.89123769 8.24004597 46.21826172 8.56542969 C43.59790781 9.07877219 40.9872328 9.63451549 38.375 10.1875 C25.91461864 12.60974576 25.91461864 12.60974576 22 10 C19.39600993 9.5780959 19.39600993 9.5780959 16.5625 9.4375 C13.24098035 9.21606536 10.20921608 8.88082739 7 8 C5.00116131 7.65977214 3.00109278 7.32670903 1 7 C-0.66677414 6.66720449 -2.33342711 6.33380188 -4 6 C-5.93678017 5.64191784 -7.87429326 5.28777833 -9.8125 4.9375 C-10.78832031 4.76089844 -11.76414062 4.58429687 -12.76953125 4.40234375 C-13.50558594 4.26957031 -14.24164063 4.13679687 -15 4 C-15 3.34 -15 2.68 -15 2 C-15.515625 2.165 -16.03125 2.33 -16.5625 2.5 C-19.73363876 3.15049 -22.77218334 3.0620734 -26 3 C-26 2.01 -26 1.02 -26 0 C-18.48509771 -4.39386399 -8.0346749 -2.03090491 0 0 Z "
     fill="#806F6A"
     transform="translate(492,701)"
     id="path10" />
  <path
     d="M0 0 C5.52571615 1.51957194 12.26632641 3.96058491 15.234375 9.1640625 C15.48703125 9.76992188 15.7396875 10.37578125 16 11 C15.01 11.33 14.02 11.66 13 12 C12.34 11.01 11.68 10.02 11 9 C10.319375 9.28875 9.63875 9.5775 8.9375 9.875 C5.66724423 11.12743838 2.37762514 12.07882951 -1 13 C-1.7425 13.2475 -2.485 13.495 -3.25 13.75 C-5 14 -5 14 -8 12 C-8.99 12.66 -9.98 13.32 -11 14 C-12.97910605 13.44844586 -14.95798158 12.89597211 -16.93359375 12.33203125 C-20.34635643 11.78366674 -22.27557575 13.05398268 -25 15 C-26.40466953 17.05093145 -26.40466953 17.05093145 -27 19 C-32.31027254 17.53967505 -36.46330032 15.01679014 -41 12 C-40.34 11.67 -39.68 11.34 -39 11 C-38.1646875 11.2784375 -38.1646875 11.2784375 -37.3125 11.5625 C-33.88524567 12.21089947 -31.27908796 11.05399256 -28 10 C-25.23818313 9.13693223 -23.53733354 9.01682423 -20.5625 9.125 C-17.06381999 9.30041154 -17.06381999 9.30041154 -14.765625 7.59765625 C-11.36429913 5.63276602 -8.00407836 4.98085774 -4.1875 4.3125 C-3.14819336 4.11817383 -3.14819336 4.11817383 -2.08789062 3.91992188 C-0.39355236 3.60442441 1.30302158 3.30097353 3 3 C2.01 2.01 1.02 1.02 0 0 Z "
     fill="#458D9B"
     transform="translate(561,704)"
     id="path11" />
  <path
     d="M0 0 C1.75215106 0.93347358 3.50163563 1.8719532 5.25 2.8125 C6.71179688 3.59560547 6.71179688 3.59560547 8.203125 4.39453125 C10.63355412 5.78965188 12.80787699 7.26195961 15 9 C13.1326034 10.8673966 9.94331659 10.3072932 7.4375 10.4375 C3.27991228 10.69549883 -0.61243599 10.99051796 -4.625 12.125 C-8 13 -8 13 -9.8359375 12.4921875 C-12.74216432 11.83120451 -15.0729322 12.50123347 -18 13 C-20.08681706 12.9179044 -22.17188261 12.76979989 -24.25 12.5625 C-29.85735025 12.06034923 -35.37360745 11.88569406 -41 12 C-41 11.34 -41 10.68 -41 10 C-42.32 9.67 -43.64 9.34 -45 9 C-41.40735167 6.75265072 -38.44857927 6.76799492 -34.265625 6.8046875 C-32.97011719 6.81113281 -31.67460937 6.81757812 -30.33984375 6.82421875 C-28.97655981 6.84092807 -27.61327856 6.85785794 -26.25 6.875 C-24.87110015 6.8850366 -23.49219335 6.89416127 -22.11328125 6.90234375 C-18.74201118 6.92591907 -15.37109364 6.9588273 -12 7 C-12 7.99 -12 8.98 -12 10 C-11.34 10 -10.68 10 -10 10 C-9.7525 9.38125 -9.505 8.7625 -9.25 8.125 C-7.74997691 5.57496075 -6.6302751 5.23777652 -4 4 C-2.64451066 2.68919712 -1.30846926 1.35774216 0 0 Z "
     fill="#A85949"
     transform="translate(538,690)"
     id="path12" />
  <path
     d="M0 0 C2.54057273 1.11150057 3.42213082 2.64267372 5 4.875 C3.90300781 5.05675781 2.80601562 5.23851562 1.67578125 5.42578125 C0.22126033 5.67914941 -1.2331617 5.93308573 -2.6875 6.1875 C-3.40873047 6.30544922 -4.12996094 6.42339844 -4.87304688 6.54492188 C-9.25490719 7.32525316 -12.16914285 8.54260738 -16 10.875 C-18.53515625 11.09765625 -18.53515625 11.09765625 -21.0625 10.9375 C-24.76455535 10.71503442 -26.769814 11.05717566 -30 12.875 C-34.92498879 14.18833034 -38.22671775 13.58617666 -43 11.875 C-43.99 11.215 -44.98 10.555 -46 9.875 C-50.72185788 9.36175458 -53.10117921 10.27578614 -57 12.875 C-57.66 12.875 -58.32 12.875 -59 12.875 C-59 12.215 -59 11.555 -59 10.875 C-59.99 10.875 -60.98 10.875 -62 10.875 C-62.33 10.215 -62.66 9.555 -63 8.875 C-63.99 8.545 -64.98 8.215 -66 7.875 C-66 7.215 -66 6.555 -66 5.875 C-51.26769725 5.50720326 -51.26769725 5.50720326 -45 7.875 C-42.05092234 8.85802589 -40.85590133 8.92042184 -37.875 8.5625 C-36.81925781 8.44455078 -36.81925781 8.44455078 -35.7421875 8.32421875 C-32.612649 7.81154506 -29.54444013 7.1232436 -26.45263672 6.42114258 C-23.99728339 5.87439508 -21.53687021 5.36855503 -19.0703125 4.875 C-18.255625 4.71 -17.4409375 4.545 -16.6015625 4.375 C-14.92799507 4.03711888 -13.25347981 3.70390401 -11.578125 3.375 C-10.77117188 3.21 -9.96421875 3.045 -9.1328125 2.875 C-8.40980957 2.730625 -7.68680664 2.58625 -6.94189453 2.4375 C-4.24719091 1.65693712 -2.87897367 -0.17993585 0 0 Z "
     fill="#5C8188"
     transform="translate(560,703.125)"
     id="path13" />
  <path
     d="M0 0 C1.98 0.66 3.96 1.32 6 2 C1.64058746 6.22677321 -2.42139589 7.08137909 -8.1875 8.125 C-9.03812012 8.29040283 -9.88874023 8.45580566 -10.76513672 8.6262207 C-12.43624065 8.95036689 -14.10842199 9.26901826 -15.78173828 9.58154297 C-18.40509956 10.07641874 -21.01417079 10.63068808 -23.625 11.1875 C-36.08538136 13.60974576 -36.08538136 13.60974576 -40 11 C-42.60399007 10.5780959 -42.60399007 10.5780959 -45.4375 10.4375 C-48.75901965 10.21606536 -51.79078392 9.88082739 -55 9 C-56.99883869 8.65977214 -58.99890722 8.32670903 -61 8 C-62.66804677 7.67364302 -64.33524314 7.34274406 -66 7 C-65.67 6.34 -65.34 5.68 -65 5 C-42.14329268 5.92835366 -42.14329268 5.92835366 -34 10 C-32.19850314 9.77695753 -30.40645516 9.4736494 -28.625 9.125 C-27.66851563 8.94195313 -26.71203125 8.75890625 -25.7265625 8.5703125 C-24.11805841 8.23386322 -22.51405535 7.87096385 -20.92578125 7.44921875 C-18.78863288 6.9506953 -16.75136346 6.82027335 -14.5625 6.6875 C-10.24533736 6.25649031 -8.26378983 4.90114651 -5 2 C-2.1875 1.25 -2.1875 1.25 0 1 C0 0.67 0 0.34 0 0 Z "
     fill="#707676"
     transform="translate(554,700)"
     id="path14" />
  <path
     d="M0 0 C1.29550781 0.00644531 2.59101563 0.01289062 3.92578125 0.01953125 C5.28906519 0.03624057 6.65234644 0.05317044 8.015625 0.0703125 C9.39452485 0.0803491 10.77343165 0.08947377 12.15234375 0.09765625 C15.52361382 0.12123157 18.89453136 0.1541398 22.265625 0.1953125 C22.265625 1.1853125 22.265625 2.1753125 22.265625 3.1953125 C23.255625 3.5253125 24.245625 3.8553125 25.265625 4.1953125 C20.813288 6.48708518 16.9222748 6.24813119 12.078125 5.8203125 C10.5652702 5.70738864 9.05224658 5.59670356 7.5390625 5.48828125 C6.80913086 5.43462402 6.07919922 5.3809668 5.32714844 5.32568359 C1.30286665 5.07118733 -2.70477687 5.13135062 -6.734375 5.1953125 C-6.734375 4.5353125 -6.734375 3.8753125 -6.734375 3.1953125 C-8.054375 2.8653125 -9.374375 2.5353125 -10.734375 2.1953125 C-7.14172667 -0.05203678 -4.18295427 -0.03669258 0 0 Z "
     fill="#9F5F51"
     transform="translate(503.734375,696.8046875)"
     id="path15" />
  <path
     d="M0 0 C1.2065625 0.0309375 1.2065625 0.0309375 2.4375 0.0625 C2.7675 1.0525 3.0975 2.0425 3.4375 3.0625 C4.0975 3.0625 4.7575 3.0625 5.4375 3.0625 C5.829375 3.495625 6.22125 3.92875 6.625 4.375 C9.2500381 6.81900099 12.11038866 7.7442106 15.4375 9.0625 C12.56566726 12.35978945 10.76734199 13.52126975 6.4375 14.0625 C5.10207061 14.38733418 3.76788449 14.7175855 2.4375 15.0625 C1.18085022 12.15649739 0.4375 10.26645416 0.4375 7.0625 C-0.2225 7.0625 -0.8825 7.0625 -1.5625 7.0625 C-2.2225 5.0825 -2.8825 3.1025 -3.5625 1.0625 C-2.5625 0.0625 -2.5625 0.0625 0 0 Z "
     fill="#3292A6"
     transform="translate(482.5625,709.9375)"
     id="path16" />
  <path
     d="M0 0 C0.33 0.66 0.66 1.32 1 2 C3.02463255 2.65213292 3.02463255 2.65213292 5 3 C5 3.66 5 4.32 5 5 C5.99 5 6.98 5 8 5 C8 5.66 8 6.32 8 7 C9.11375 6.319375 10.2275 5.63875 11.375 4.9375 C13.2734375 3.77734375 13.2734375 3.77734375 15 3 C15.66 3.33 16.32 3.66 17 4 C13.51964927 6.83192037 10.15081965 9.25832442 6 11 C2.1298162 10.57572851 -0.87829336 9.32522182 -4 7 C-4.33 6.01 -4.66 5.02 -5 4 C-5.66 4 -6.32 4 -7 4 C-7.33 3.01 -7.66 2.02 -8 1 C-6.865625 1.020625 -5.73125 1.04125 -4.5625 1.0625 C-1.18424326 1.41577477 -1.18424326 1.41577477 0 0 Z "
     fill="#4A8895"
     transform="translate(493,709)"
     id="path17" />
  <path
     d="M0 0 C-1.375 2 -1.375 2 -3 4 C-3.66 4 -4.32 4 -5 4 C-4.67 4.99 -4.34 5.98 -4 7 C-1.525 7.495 -1.525 7.495 1 8 C-0.06640625 9.51171875 -0.06640625 9.51171875 -2 11 C-5.21484375 11.14453125 -5.21484375 11.14453125 -8.9375 10.8125 C-10.77634766 10.66748047 -10.77634766 10.66748047 -12.65234375 10.51953125 C-15.59586815 10.06271825 -17.48750125 9.53016841 -20 8 C-17.93930083 6.87159372 -15.87656904 5.74721229 -13.8125 4.625 C-12.66394531 3.99851562 -11.51539063 3.37203125 -10.33203125 2.7265625 C-2.58031088 -1.29015544 -2.58031088 -1.29015544 0 0 Z "
     fill="#9D6154"
     transform="translate(491,690)"
     id="path18" />
  <path
     d="M0 0 C1.6634046 0.3492478 3.3290523 0.68883656 5 1 C4.67 2.32 4.34 3.64 4 5 C-0.21912747 4.5205537 -2.79663178 3.83374881 -6 1 C-6.33 1.66 -6.66 2.32 -7 3 C-10.96 3 -14.92 3 -19 3 C-19 2.01 -19 1.02 -19 0 C-12.83975933 -4.75218566 -6.95521961 -1.91507924 0 0 Z "
     fill="#21A0B9"
     transform="translate(466,712)"
     id="path19" />
  <path
     d="M0 0 C0.33 0.66 0.66 1.32 1 2 C-0.98 2.99 -0.98 2.99 -3 4 C2.28 5.32 7.56 6.64 13 8 C7.76844369 10.61577816 6.40261966 9.6207859 1 8 C1 8.66 1 9.32 1 10 C-2.96 9.67 -6.92 9.34 -11 9 C-11 8.01 -11 7.02 -11 6 C-7.37 4.02 -3.74 2.04 0 0 Z "
     fill="#458B9A"
     transform="translate(465,702)"
     id="path21" />
  <path
     d="M0 0 C3.78383679 0.92493788 5.56693694 1.39371171 7.875 4.625 C8.431875 5.800625 8.431875 5.800625 9 7 C8.01 7.33 7.02 7.66 6 8 C5.34 7.01 4.68 6.02 4 5 C3.319375 5.28875 2.63875 5.5775 1.9375 5.875 C-2.60296967 7.61390328 -7.2751151 8.86602762 -12 10 C-12.33 9.01 -12.66 8.02 -13 7 C-8.72934283 4.81259023 -4.42066456 2.85667911 0 1 C0 0.67 0 0.34 0 0 Z "
     fill="#3093A8"
     transform="translate(568,708)"
     id="path22" />
  <path
     d="M0 0 C0.66 0.33 1.32 0.66 2 1 C3.39301984 1.15320381 4.78972825 1.27395626 6.1875 1.375 C10.65194079 1.81566487 13.98476131 3.03509596 18 5 C18 5.66 18 6.32 18 7 C12.555 6.505 12.555 6.505 7 6 C7 5.34 7 4.68 7 4 C6.484375 4.165 5.96875 4.33 5.4375 4.5 C2.26636124 5.15049 -0.77218334 5.0620734 -4 5 C-4 4.01 -4 3.02 -4 2 C-2.125 0.9375 -2.125 0.9375 0 0 Z "
     fill="#7A7674"
     transform="translate(470,699)"
     id="path24" />
  <path
     d="M0 0 C2.97 1.65 5.94 3.3 9 5 C9 5.33 9 5.66 9 6 C4.79848264 7.37357298 2.23268572 8.12871619 -2 7 C-4.70465742 7.86454438 -4.70465742 7.86454438 -7 9 C-7.33 8.01 -7.66 7.02 -8 6 C-7.4225 5.7525 -6.845 5.505 -6.25 5.25 C-3.6997003 3.83316683 -1.98214299 2.12372463 0 0 Z "
     fill="#BD513D"
     transform="translate(538,690)"
     id="path25" />
  <path
     d="M0 0 C9.57 0 19.14 0 29 0 C29 0.99 29 1.98 29 3 C22.39875806 3.78875134 16.56725094 4.00178404 10 3 C8.9275 3.04125 7.855 3.0825 6.75 3.125 C4 3 4 3 0 0 Z "
     fill="#AC5848"
     transform="translate(497,697)"
     id="path26" />
  <path
     d="M0 0 C0.66 0.66 1.32 1.32 2 2 C1.05640625 2.27263672 1.05640625 2.27263672 0.09375 2.55078125 C-4.14371404 3.79521723 -8.28594374 5.07580149 -12.375 6.75 C-15.96296146 7.98722809 -16.64645165 8.09322722 -20 7 C-19.67 6.01 -19.34 5.02 -19 4 C-15.11769212 2.56709772 -11.04915936 1.83334972 -7 1 C-6.2471875 0.84144531 -5.494375 0.68289063 -4.71875 0.51953125 C-2.875 0.1875 -2.875 0.1875 0 0 Z "
     fill="#4A8895"
     transform="translate(565,707)"
     id="path27" />
  <path
     d="M0 0 C0.8971875 0.309375 0.8971875 0.309375 1.8125 0.625 C1.8125 1.285 1.8125 1.945 1.8125 2.625 C-7.77496736 5.94614883 -7.77496736 5.94614883 -12.1875 6.625 C-13.1465625 6.79708984 -13.1465625 6.79708984 -14.125 6.97265625 C-18.25917029 7.63381951 -20.58569515 7.71869948 -24.1875 5.625 C-23.34771606 5.45895264 -23.34771606 5.45895264 -22.4909668 5.28955078 C-19.95087823 4.78327159 -17.41297661 4.26675769 -14.875 3.75 C-13.99392578 3.57597656 -13.11285156 3.40195312 -12.20507812 3.22265625 C-11.35751953 3.04863281 -10.50996094 2.87460937 -9.63671875 2.6953125 C-8.46629028 2.45965576 -8.46629028 2.45965576 -7.2722168 2.21923828 C-4.33765627 1.38275622 -3.13112623 -0.5367645 0 0 Z M-26.1875 6.625 C-24.1875 7.625 -24.1875 7.625 -24.1875 7.625 Z "
     fill="#647C7F"
     transform="translate(560.1875,703.375)"
     id="path28" />
  <path
     d="M0 0 C2.00720923 0.28674418 4.0085944 0.61866701 6 1 C6 1.66 6 2.32 6 3 C6.66 2.67 7.32 2.34 8 2 C10.44928655 1.90144883 12.86381376 1.86099417 15.3125 1.875 C16.62863281 1.87242187 17.94476563 1.86984375 19.30078125 1.8671875 C22.35920294 1.97699356 25.0391392 2.27839756 28 3 C28 3.33 28 3.66 28 4 C23.72929442 4.08692074 19.45881542 4.14036515 15.1875 4.1875 C13.36508789 4.22520508 13.36508789 4.22520508 11.50585938 4.26367188 C9.76079102 4.27817383 9.76079102 4.27817383 7.98046875 4.29296875 C6.90692139 4.3086792 5.83337402 4.32438965 4.72729492 4.34057617 C2 4 2 4 0.1262207 2.48168945 C-0.24543213 1.99273193 -0.61708496 1.50377441 -1 1 C-0.67 0.67 -0.34 0.34 0 0 Z "
     fill="#956559"
     transform="translate(491,699)"
     id="path29" />
  <path
     d="M0 0 C2.04224637 0.11514149 4.08380159 0.24257326 6.125 0.375 C7.26195312 0.44460938 8.39890625 0.51421875 9.5703125 0.5859375 C12.96988667 0.99636445 15.7988022 1.81202008 19 3 C19.99 3.33 20.98 3.66 22 4 C21.67 4.66 21.34 5.32 21 6 C13.5403037 5.25403037 6.31048782 3.63253871 -1 2 C-0.67 1.34 -0.34 0.68 0 0 Z "
     fill="#54848D"
     transform="translate(462,705)"
     id="path30" />
  <path
     d="M0 0 C1.98 0.66 3.96 1.32 6 2 C1.73688282 6.12989477 -1.28758534 6.61271765 -7 7 C-7 5.68 -7 4.36 -7 3 C-4.69 2.34 -2.38 1.68 0 1 C0 0.67 0 0.34 0 0 Z "
     fill="#7A7572"
     transform="translate(554,700)"
     id="path31" />
  <path
     d="M0 0 C4.95 0.99 9.9 1.98 15 3 C14.67 4.32 14.34 5.64 14 7 C9.65866511 6.50666649 7.40883973 5.63910173 4 3 C1.35065178 2.28566879 1.35065178 2.28566879 -1 2 C-0.67 1.34 -0.34 0.68 0 0 Z "
     fill="#2798AF"
     transform="translate(456,710)"
     id="path33" />
  <path
     d="M0 0 C1.051875 0.433125 1.051875 0.433125 2.125 0.875 C3.07375 1.24625 4.0225 1.6175 5 2 C6.010625 2.433125 7.02125 2.86625 8.0625 3.3125 C11.01020292 4.35615871 11.01020292 4.35615871 13.375 2.625 C13.91125 2.08875 14.4475 1.5525 15 1 C15.66 1.66 16.32 2.32 17 3 C16.01 4.485 16.01 4.485 15 6 C14.67 6.66 14.34 7.32 14 8 C8.76481294 6.56032356 4.36973991 4.18303389 0 1 C0 0.67 0 0.34 0 0 Z "
     fill="#3D98A9"
     transform="translate(520,715)"
     id="path34" />
  <path
     d="M0 0 C0 0.33 0 0.66 0 1 C-3.42573937 1.77528479 -6.57239245 2.11918778 -10.08203125 2.09765625 C-11.01337891 2.09443359 -11.94472656 2.09121094 -12.90429688 2.08789062 C-13.86400391 2.07951172 -14.82371094 2.07113281 -15.8125 2.0625 C-17.28106445 2.05573242 -17.28106445 2.05573242 -18.77929688 2.04882812 C-21.18626111 2.03708684 -23.59309857 2.02066419 -26 2 C-26 1.67 -26 1.34 -26 1 C-17.07396326 -0.59770776 -9.00360975 -1.22026945 0 0 Z "
     fill="#FDD220"
     transform="translate(642,483)"
     id="path36" />
  <path
     d="M0 0 C1.98 0.66 3.96 1.32 6 2 C6 2.33 6 2.66 6 3 C4.62328125 3.07347656 4.62328125 3.07347656 3.21875 3.1484375 C-3.42864086 3.5534256 -9.61387859 4.08416358 -16 6 C-14.16480953 3.41404979 -12.70206427 2.15173647 -9.578125 1.4765625 C-2.55 0.725 -2.55 0.725 0 2 C0 1.34 0 0.68 0 0 Z "
     fill="#9B5F52"
     transform="translate(546,697)"
     id="path38" />
  <path
     d="M0 0 C0.90492188 0.02320313 1.80984375 0.04640625 2.7421875 0.0703125 C4.10730469 0.09738281 4.10730469 0.09738281 5.5 0.125 C6.19867187 0.14820313 6.89734375 0.17140625 7.6171875 0.1953125 C5.33236325 2.78757488 4.63556192 3.19112184 1.0546875 4.0078125 C-0.0796875 4.0696875 -1.2140625 4.1315625 -2.3828125 4.1953125 C-3.0428125 3.5353125 -3.7028125 2.8753125 -4.3828125 2.1953125 C-2.3828125 0.1953125 -2.3828125 0.1953125 0 0 Z "
     fill="#52848C"
     transform="translate(526.3828125,712.8046875)"
     id="path45" />
  <path
     d="M0 0 C0.43570313 0.38671875 0.87140625 0.7734375 1.3203125 1.171875 C5.05744652 4.43984501 8.8076016 7.34140589 13 10 C11.68 10.33 10.36 10.66 9 11 C9 10.34 9 9.68 9 9 C8.46375 8.9175 7.9275 8.835 7.375 8.75 C4.1647569 7.73623902 1.73707608 5.92839451 -1 4 C-0.67 2.68 -0.34 1.36 0 0 Z "
     fill="#E84027"
     transform="translate(525,680)"
     id="path47" />
  <path
     d="M0 0 C2.09733419 0.66729896 2.09733419 0.66729896 4.0625 0 C6.6687064 -0.63180761 8.55173558 -0.14331611 11.125 0.5 C8.20752948 2.44498034 6.97393153 2.89388356 3.625 3.3125 C2.8515625 3.42207031 2.078125 3.53164063 1.28125 3.64453125 C-0.875 3.5 -0.875 3.5 -2.65625 2.01171875 C-3.0584375 1.51285156 -3.460625 1.01398437 -3.875 0.5 C-1.875 -0.5 -1.875 -0.5 0 0 Z "
     fill="#677B7D"
     transform="translate(517.875,709.5)"
     id="path51" />
  <path
     d="M0 0 C2.31 0 4.62 0 7 0 C7 0.66 7 1.32 7 2 C8.65 2.33 10.3 2.66 12 3 C7.91556885 4.53166168 4.20544343 3.63081652 0 3 C0 2.01 0 1.02 0 0 Z "
     fill="#3890A3"
     transform="translate(454,708)"
     id="path53" />
  <path
     d="M0 0 C0.33 0.66 0.66 1.32 1 2 C-0.98 2.99 -0.98 2.99 -3 4 C-1.68 4.66 -0.36 5.32 1 6 C-2.63 6.33 -6.26 6.66 -10 7 C-7.0094833 3.66442368 -4.06815373 1.84916079 0 0 Z "
     fill="#5A949F"
     transform="translate(465,702)"
     id="path54" />
  <path
     d="M0 0 C0.66 0.33 1.32 0.66 2 1 C-1.63 3.31 -5.26 5.62 -9 8 C-9.99 7.34 -10.98 6.68 -12 6 C-11.01 6 -10.02 6 -9 6 C-9 5.34 -9 4.68 -9 4 C-7.88625 3.525625 -6.7725 3.05125 -5.625 2.5625 C-3.73289006 1.74693537 -1.84287291 0.92143645 0 0 Z "
     fill="#4896A3"
     transform="translate(508,712)"
     id="path55" />
  <path
     d="M0 0 C-0.99 1.485 -0.99 1.485 -2 3 C-4.3828125 3.29296875 -4.3828125 3.29296875 -7.125 3.1875 C-8.03507813 3.16042969 -8.94515625 3.13335938 -9.8828125 3.10546875 C-10.58148437 3.07066406 -11.28015625 3.03585937 -12 3 C-7.78372195 0.18914797 -4.97048208 -0.11045516 0 0 Z "
     fill="#93655A"
     transform="translate(544,700)"
     id="path56" />
  <path
     d="M0 0 C3.78383679 0.92493788 5.56693694 1.39371171 7.875 4.625 C8.431875 5.800625 8.431875 5.800625 9 7 C8.01 7.33 7.02 7.66 6 8 C5.566875 7.236875 5.13375 6.47375 4.6875 5.6875 C3.26313215 3.41906232 1.96739903 1.7800277 0 0 Z "
     fill="#2FA3B9"
     transform="translate(568,708)"
     id="path61" />
  <path
     d="M0 0 C6.4 -0.36923077 6.4 -0.36923077 9.4375 1.5 C9.953125 1.995 10.46875 2.49 11 3 C6.25 2.125 6.25 2.125 4 1 C4 1.66 4 2.32 4 3 C2.35 2.67 0.7 2.34 -1 2 C-0.67 1.34 -0.34 0.68 0 0 Z "
     fill="#B05F4F"
     transform="translate(542,696)"
     id="path62" />
  <path
     d="M0 0 C0.66 0.33 1.32 0.66 2 1 C1.34 2.32 0.68 3.64 0 5 C-1.65 4.67 -3.3 4.34 -5 4 C-3.36587557 2.29159719 -2.13093906 1.06546953 0 0 Z "
     fill="#3691A4"
     transform="translate(551,713)"
     id="path63" />
  <path
     d="M0 0 C-4.30769231 3.07692308 -4.30769231 3.07692308 -7.8125 2.6875 C-8.534375 2.460625 -9.25625 2.23375 -10 2 C-7.20652751 -0.79347249 -3.65536205 -1.82768103 0 0 Z "
     fill="#25A4BC"
     transform="translate(498,720)"
     id="path65" />
  <path
     d="M0 0 C3.875 1.75 3.875 1.75 5 4 C2.03 3.67 -0.94 3.34 -4 3 C-2.68 2.01 -1.36 1.02 0 0 Z "
     fill="#A3695B"
     transform="translate(475,696)"
     id="path66" />
  <path
     d="M0 0 C-4.75 4 -4.75 4 -7 4 C-7.33 3.01 -7.66 2.02 -8 1 C-5.07175348 0.02391783 -3.04386724 -0.08226668 0 0 Z "
     fill="#51838D"
     transform="translate(508,712)"
     id="path70" />
  <path
     d="m 534.03276,883.37068 c 1.38218,-2.01233 1.38218,-2.01233 3.01567,-4.02464 h 2.01045 l -1.00522,-3.01847 c -1.48604,-0.19533 -2.97314,-0.38244 -4.46068,-0.56595 -0.82803,-0.10508 -1.65605,-0.21012 -2.50914,-0.31835 -0.68548,-0.0403 -1.37095,-0.0803 -2.07721,-0.12195 l -1.00524,1.00615 c -2.15678,0.0883 -4.31646,0.10761 -6.47503,0.0984 -1.312,-0.003 -2.624,-0.007 -3.97574,-0.0107 -1.39595,-0.008 -2.79187,-0.0167 -4.18778,-0.0257 -1.39986,-0.004 -2.79972,-0.0107 -4.19956,-0.0146 -3.43785,-0.0119 -6.8756,-0.0286 -10.31337,-0.0491 v -3.01846 h -2.01045 c -0.37319,0.93384 -0.37319,0.93384 -0.75392,1.88653 -1.50785,2.56574 -2.6334,2.90499 -5.27743,4.15038 -1.36257,1.31887 -2.70559,2.65854 -4.0209,4.02462 -3.08244,-1.67175 -6.15978,-3.35267 -9.23451,-5.03863 -1.22759,-0.67224 -2.456,-1.34298 -3.68517,-2.01231 -9.60446,-5.2357 -19.0908,-10.66651 -28.51097,-16.22676 -1.74714,-1.03102 -3.49631,-2.05866 -5.24551,-3.0862 -20.43931,-12.1237 -20.43931,-12.1237 -23.68953,-18.91301 -0.93829,-5.12168 -1.14959,-10.14136 -1.13529,-15.33304 -0.003,-1.19666 -0.003,-1.19666 -0.004,-2.41751 -0.004,-2.61977 -0.003,-5.23946 0.003,-7.85923 -6.8e-4,-1.83574 -0.003,-3.6715 -0.003,-5.50725 -9.6e-4,-3.84303 6.7e-4,-7.68604 0.004,-11.52905 0.007,-4.89949 0.003,-9.79888 -0.004,-14.69834 -0.004,-3.79125 -0.003,-7.58246 1.3e-4,-11.37371 6.7e-4,-1.80498 -1.3e-4,-3.60997 -0.003,-5.41497 -0.0293,-28.88164 -0.0293,-28.88164 6.16836,-35.53769 7.22595,-5.93013 15.18858,-10.64088 23.30864,-15.2181 1.72635,-0.98405 3.45268,-1.96811 5.17838,-2.95334 1.17349,-0.66971 2.34741,-1.33865 3.52177,-2.0068 4.86196,-2.76844 9.68777,-5.59568 14.50862,-8.43499 8.97074,-5.28074 17.9928,-10.45478 27.11527,-15.4689 l 2.81248,-1.55516 c 1.29012,-0.70294 1.29012,-0.70294 2.60631,-1.42008 0.75187,-0.41089 1.50376,-0.8218 2.27843,-1.24516 5.18844,-2.46393 10.54612,-2.94931 16.17682,-2.00518 11.83109,4.54722 22.72081,11.82422 33.59256,18.25226 4.60638,2.71765 9.23677,5.38626 13.8925,8.0178 37.9679,21.46771 37.9679,21.46771 41.16315,30.38899 1.51521,6.88305 1.97376,13.54644 1.98395,20.56499 0.007,1.26062 0.007,1.26062 0.0147,2.54671 0.0146,2.75461 0.0216,5.50916 0.0271,8.2638 0.004,1.4206 0.004,1.4206 0.008,2.86989 0.0146,5.00765 0.0243,10.0153 0.0287,15.023 0.004,5.15349 0.0296,10.30672 0.0582,15.46016 0.0188,3.9819 0.0239,7.96375 0.0256,11.94569 0.003,1.89934 0.0107,3.79871 0.0243,5.698 0.0168,2.66249 0.0147,5.32432 0.008,7.98685 0.008,0.7733 0.0188,1.54661 0.0282,2.34338 -0.0511,6.74364 -1.17032,13.24624 -5.86013,18.29284 -4.89532,3.52671 -10.26576,6.40209 -15.5103,9.36588 -1.74635,0.99696 -3.49273,1.99395 -5.23847,2.99199 -1.19528,0.68305 -2.39093,1.36541 -3.58698,2.04708 -7.18552,4.09729 -14.31661,8.28761 -21.45055,12.47405 -20.99343,12.2927 -20.99343,12.2927 -24.13179,10.72207 z"
     fill="#01aecd"
     id="path5-0"
     sodipodi:nodetypes="ccccccccccccccccccccccccccccccccccccccccccccccccccccccccccccc"
     style="display:inline;fill:url(#linearGradient73);fill-opacity:1;stroke-width:1.00569" />
  <path
     d="m 512.01256,861.11171 c -3.28962,-0.93345 -5.73261,-2.1535 -8.64699,-3.93642 -1.06168,-0.64104 -2.12333,-1.28209 -3.21717,-1.94256 -0.55933,-0.34356 -1.11869,-0.68717 -1.69498,-1.04115 -2.99369,-1.83865 -6.0059,-3.64652 -9.01571,-5.45856 -0.62405,-0.37683 -1.2481,-0.75368 -1.89103,-1.14197 -7.58603,-4.56905 -15.28902,-8.93224 -22.99594,-13.2928 -1.71561,-0.97086 -3.42989,-1.94411 -5.14412,-2.91745 -0.97484,-0.5509 -1.94967,-1.10181 -2.95405,-1.66939 -8.54599,-5.05703 -8.54599,-5.05703 -9.87432,-7.71615 -0.14403,-2.19115 -0.22333,-4.38669 -0.27362,-6.58201 -0.0246,-1.01389 -0.0246,-1.01389 -0.0496,-2.04827 -0.14109,-6.23884 -0.21948,-12.4791 -0.28038,-18.71918 -0.0413,-4.19092 -0.10193,-8.37948 -0.21014,-12.56926 -0.10445,-4.05388 -0.15913,-8.10566 -0.17925,-12.1608 -0.0167,-1.54184 -0.0493,-3.08357 -0.10063,-4.6246 -0.3813,-12.02027 -0.3813,-12.02027 3.19985,-16.16363 2.57063,-1.8344 5.09791,-3.25181 7.94594,-4.60612 l 3.09372,-1.91355 c 0.86316,-0.48653 1.72634,-0.97308 2.61565,-1.47434 1.00334,-0.57135 2.00669,-1.14268 3.04047,-1.73129 1.05176,-0.5934 2.10355,-1.18675 3.18721,-1.79812 7.40946,-4.20799 14.75769,-8.47828 21.98534,-12.99355 0.63859,-0.39695 1.27714,-0.79389 1.93505,-1.20289 3.76365,-2.34018 3.76365,-2.34018 7.50827,-4.71065 1.72111,-1.09927 3.45405,-2.17993 5.18741,-3.25975 1.47975,-0.93871 1.47975,-0.93871 2.98943,-1.89637 3.26842,-1.45124 4.43017,-1.39246 7.7657,-0.21027 1.94537,0.96044 3.85294,1.99933 5.72899,3.08923 1.12053,0.64607 2.24107,1.29211 3.39559,1.95776 1.20985,0.70707 2.41959,1.41436 3.62919,2.12187 1.24996,0.72492 2.50028,1.44924 3.75095,2.17296 2.58771,1.4984 5.17319,3.00052 7.75758,4.5046 3.74487,2.17605 7.50559,4.3234 11.27,6.46533 1.17919,0.67301 2.35825,1.34624 3.5372,2.01967 2.21126,1.26262 4.42435,2.52211 6.63948,3.778 l 3.06008,1.75634 2.64756,1.50971 c 1.41841,0.89858 1.41841,0.89858 2.86548,1.81531 0.69242,0.32278 1.38484,0.64552 2.09822,0.97808 2.61462,1.45683 4.14646,2.64527 5.94358,5.05886 1.19746,5.41807 1.05966,10.78131 0.96201,16.29497 -0.003,1.60592 -0.003,3.21186 0.003,4.81777 -0.003,3.35826 -0.031,6.71477 -0.0809,10.07263 -0.0629,4.30191 -0.0677,8.60147 -0.0532,12.90375 0.007,3.31298 -0.0119,6.62547 -0.0395,9.93837 -0.0107,1.58609 -0.0147,3.17226 -0.0119,4.75845 -9.6e-4,2.21646 -0.0355,4.43003 -0.0789,6.646 -0.0119,1.2598 -0.0263,2.51961 -0.0397,3.81757 -0.65853,3.19358 -0.65853,3.19358 -3.044,5.53814 -2.76002,1.75601 -5.52111,3.45484 -8.36964,5.06402 -1.12088,0.63659 -2.24173,1.27319 -3.39657,1.92905 -0.59154,0.33329 -1.18305,0.6666 -1.79251,1.01 -1.86161,1.04907 -3.72012,2.10352 -5.57783,3.15955 -2.58215,1.46776 -5.16514,2.934 -7.74877,4.39922 -6.17239,3.50366 -12.32654,7.0389 -18.47736,10.58034 -1.1023,0.63139 -2.20463,1.26278 -3.34034,1.9133 -1.53419,0.88365 -1.53419,0.88365 -3.09938,1.78509 l -2.71136,1.55762 c -2.4334,1.38608 -2.4334,1.38608 -4.36249,3.23415 -2.06738,1.25696 -2.06738,1.25696 -4.98833,1.13339 z"
     fill="#0e0d0e"
     id="path7-9"
     sodipodi:nodetypes="sccsccscccccccccccccccccccccccccccccccccccccccccccccssccccccss"
     style="fill:#000000;fill-opacity:1;stroke-width:1.00569" />
</svg>
