<?xml version="1.0" encoding="UTF-8" standalone="no"?>
<svg
   version="1.1"
   width="1510.2523"
   height="1024"
   id="svg70"
   sodipodi:docname="logo ABS(FR) with text.svg"
   inkscape:version="1.4 (86a8ad7, 2024-10-11)"
   inkscape:export-filename="logo ABS(FR) with text"
   inkscape:export-xdpi="96"
   inkscape:export-ydpi="96"
   xmlns:inkscape="http://www.inkscape.org/namespaces/inkscape"
   xmlns:sodipodi="http://sodipodi.sourceforge.net/DTD/sodipodi-0.dtd"
   xmlns:xlink="http://www.w3.org/1999/xlink"
   xmlns="http://www.w3.org/2000/svg"
   xmlns:svg="http://www.w3.org/2000/svg">
  <defs
     id="defs70">
    <rect
       x="514.95465"
       y="665.22009"
       width="834.05774"
       height="263.38663"
       id="rect79" />
    <rect
       x="541.96869"
       y="709.11792"
       width="805.35535"
       height="182.3446"
       id="rect78" />
    <rect
       x="670.28522"
       y="109.74444"
       width="867.82526"
       height="673.66199"
       id="rect76" />
    <rect
       x="707.4295"
       y="126.62819"
       width="445.73123"
       height="285.33554"
       id="rect75" />
    <rect
       x="724.31329"
       y="162.08409"
       width="734.44354"
       height="536.90356"
       id="rect74" />
    <rect
       x="617.94562"
       y="165.46085"
       width="808.73206"
       height="668.59686"
       id="rect73" />
    <linearGradient
       id="linearGradient72"
       inkscape:collect="always">
      <stop
         style="stop-color:#01aecd;stop-opacity:1;"
         offset="0"
         id="stop72" />
      <stop
         style="stop-color:#fc2910;stop-opacity:1;"
         offset="1"
         id="stop73" />
    </linearGradient>
    <linearGradient
       inkscape:collect="always"
       xlink:href="#linearGradient72"
       id="linearGradient73"
       x1="512.16681"
       y1="712.43719"
       x2="512.31604"
       y2="680.35217"
       gradientUnits="userSpaceOnUse"
       gradientTransform="translate(-211.04699,-1.6883759)" />
    <rect
       x="670.28522"
       y="109.74444"
       width="867.82526"
       height="673.66199"
       id="rect76-4" />
  </defs>
  <sodipodi:namedview
     id="namedview70"
     pagecolor="#ffffff"
     bordercolor="#000000"
     borderopacity="0.25"
     inkscape:showpageshadow="2"
     inkscape:pageopacity="0.0"
     inkscape:pagecheckerboard="0"
     inkscape:deskcolor="#d1d1d1"
     inkscape:zoom="0.59228516"
     inkscape:cx="914.25556"
     inkscape:cy="596.84089"
     inkscape:window-width="2560"
     inkscape:window-height="1494"
     inkscape:window-x="-11"
     inkscape:window-y="-11"
     inkscape:window-maximized="1"
     inkscape:current-layer="svg70" />
  <path
     d="m 0,0 c 498.38325,0 996.76649,0 1510.2524,0 0,337.91997 0,675.83997 0,1024 C 1011.869,1024 513.48577,1024 0,1024 0,686.07997 0,348.15997 0,0 Z"
     fill="#0e0d0e"
     id="path1"
     style="stroke-width:1.21444" />
  <path
     d="m 254.65483,145.59029 c 15.905,14.53017 29.24605,30.57457 40.02344,49.24219 1.18193,2.0432 2.43286,4.04772 3.74219,6.01171 0.54527,-1.01578 1.09055,-2.03156 1.65234,-3.07812 4.84814,-8.90238 10.00658,-16.98992 16.34766,-24.92188 0.62648,-0.83015 1.25297,-1.66031 1.89844,-2.51562 11.47239,-14.78261 25.33136,-28.37017 41.10156,-38.48438 0.66709,-0.43103 1.33418,-0.86206 2.02148,-1.30615 36.22295,-23.08408 80.30545,-28.76033 122.09668,-20.04346 10.35937,2.43632 21.50489,5.16316 30.88184,10.34961 0.33,0.66 0.66,1.32 1,2 -13.86493,5.43906 -27.99923,9.89136 -42.21411,14.31739 -18.55989,5.79028 -36.97756,11.93716 -54.47339,20.49511 -1.04471,0.50789 -2.08941,1.01579 -3.16577,1.53907 -23.91551,11.81755 -45.45174,27.63316 -64.14673,46.64843 0.58153,-0.26627 1.16306,-0.53254 1.76221,-0.80688 23.90646,-10.86806 48.63218,-20.32344 75.2417,-20.36108 1.26142,-0.005 1.26142,-0.005 2.54832,-0.0101 1.77238,-0.005 3.54477,-0.007 5.31715,-0.007 2.66155,-0.002 5.32267,-0.0203 7.98413,-0.0393 35.92412,-0.12144 70.65823,12.83279 98.14649,36.22461 1.26457,1.07315 1.26457,1.07315 2.55469,2.16797 2.53664,2.22463 4.99599,4.51163 7.44531,6.83203 0.51063,0.47277 1.02126,0.94553 1.54736,1.43262 8.25789,7.67663 15.07488,15.60394 20.45264,25.56738 0,0.66 0,1.32 0,2 -10.06162,1.09579 -19.34308,-1.82506 -28.94843,-4.41598 -2.9052,-0.7826 -5.81458,-1.54735 -8.72589,-2.30692 -3.7904,-0.98893 -7.57982,-1.98146 -11.36816,-2.97827 -32.92221,-8.64309 -65.38863,-11.48389 -99.31201,-11.4292 -3.56074,0.006 -7.1214,0.002 -10.68213,-0.004 -2.79022,-0.004 -5.58043,-0.002 -8.37065,1.3e-4 -1.93721,9.7e-4 -3.87442,-0.002 -5.81163,-0.005 -8.3082,0.0217 -16.50284,0.44388 -24.7811,1.13894 0.91983,0.17846 1.83965,0.35691 2.78735,0.54078 28.61814,5.65109 53.98858,18.78868 76.21265,37.45922 0.68449,0.56848 1.36898,1.13696 2.07422,1.72266 15.07638,13.74094 23.99877,36.58202 25.0498,56.64477 0.42915,14.1553 -0.70728,27.6932 -3.12402,41.6326 -0.99,0 -1.98,0 -3,0 -1.82084,-2.1905 -3.44485,-4.3535 -5.0625,-6.6875 -0.98976,-1.3863 -1.98067,-2.7717 -2.97266,-4.1563 -0.74661,-1.0499 -0.74661,-1.0499 -1.5083,-2.1211 -6.10732,-8.5334 -12.61745,-16.5426 -19.80029,-24.1914 -2.46049,-2.6342 -4.843,-5.3209 -7.21875,-8.0312 -3.74434,-4.1708 -7.72548,-7.9314 -11.94141,-11.62112 -1.57377,-1.38167 -3.12675,-2.78773 -4.64843,-4.22656 -33.89704,-31.87156 -83.2836,-61.73987 -131.12891,-60.3711 -22.67999,1.23766 -43.96599,10.81731 -63.71875,21.40625 -0.58942,0.31405 -1.17885,0.6281 -1.78613,0.95166 -21.84192,11.7484 -43.13683,27.39582 -60.40137,45.23587 -1.8001,1.8001 -3.67514,3.4271 -5.625,5.0625 -14.10684,12.2131 -26.07523,27.9567 -36.23023,43.5183 -0.46156,0.6849 -0.92313,1.3698 -1.39868,2.0754 -0.39904,0.6104 -0.79809,1.2208 -1.20923,1.8496 -1.34936,1.3067 -1.34936,1.3067 -5.34936,1.3067 -1.50717,-10.3092 -2.37298,-20.4332 -2.37061,-30.8545 -0.004,-2.1457 -0.041,-4.2893 -0.0786,-6.4346 -0.10585,-12.8929 1.987,-25.55131 8.19922,-37.02343 0.34579,-0.65967 0.69158,-1.31935 1.04785,-1.99902 15.48106,-28.81471 46.25066,-47.75157 76.79834,-57.51855 5.10175,-1.5228 10.23723,-2.886 15.40381,-4.16993 -8.87522,-0.8892 -17.67334,-1.17376 -26.58984,-1.20312 -0.68095,-0.003 -1.3619,-0.006 -2.06348,-0.009 -3.61907,-0.0149 -7.23809,-0.0242 -10.85718,-0.0285 -2.92103,-0.004 -5.84175,-0.0181 -8.76269,-0.041 -24.7044,-0.18988 -49.17506,0.85355 -73.47678,5.78125 -1.229,0.24066 -2.458,0.48131 -3.7242,0.72925 -13.2887,2.68286 -26.3521,6.34904 -39.3803,10.07544 -9.1259,2.57828 -17.6041,4.53482 -27.1455,4.69531 1.6702,-11.01974 9.1997,-17.53354 17,-25 3.3188,-3.28078 3.3188,-3.28078 6.5273,-6.66796 22.0936,-23.80718 61.22966,-41.1049 93.43193,-42.41153 20.24364,-0.61032 40.27758,-0.87066 60.04074,4.07949 0.71527,0.16597 1.43054,0.33194 2.16748,0.50293 14.2202,3.34711 27.50841,9.64098 40.83252,15.49707 -33.22149,-42.05795 -92.01439,-58.51155 -140.84619,-73.64306 -1.09318,-0.33912 -2.18636,-0.67823 -3.31267,-1.02762 -2.07075,-0.64158 -4.14211,-1.28123 -6.21411,-1.91864 -1.397,-0.43242 -1.397,-0.43242 -2.8221,-0.87357 -0.8105,-0.24963 -1.6209,-0.49927 -2.4559,-0.75647 -2.4948,-0.82908 -4.9179,-1.78159 -7.349,-2.78064 1,-3 1,-3 3.6757,-4.42968 14.91719,-5.92841 30.33632,-9.89761 46.32427,-11.57032 1.03898,-0.11086 2.07797,-0.22171 3.14844,-0.33593 44.39251,-4.05562 87.60737,8.11825 121.08593,38.08203 z"
     fill="#00afce"
     id="path2" />
  <path
     d="m 178.42046,396.84417 c 79.53,0 159.06,0 241,0 3.45113,18.4061 3.45113,18.4061 4.31641,25.8281 0.10199,0.84 0.20398,1.68 0.30906,2.5454 0.21153,1.7504 0.42061,3.501 0.62721,5.252 0.30794,2.6086 0.62363,5.2162 0.94068,7.8237 0.62556,5.181 1.22202,10.365 1.80664,15.5508 0.14624,1.2805 0.14624,1.2805 0.29544,2.5868 1.21045,10.7259 2.05544,21.344 2.02023,32.1422 -0.003,2.0375 0.0206,4.0736 0.0457,6.1109 0.11207,23.4057 -7.14012,44.4456 -23.61133,61.4101 -24.383,24.383 -59.54401,36.3433 -93.75,36.75 -0.93924,0.019 -1.87849,0.038 -2.84619,0.058 -41.1975,0.7734 -84.57465,-5.4734 -115.85694,-34.7905 -12.24972,-11.8417 -20.75066,-25.519 -24.29687,-42.2671 -0.17773,-0.8133 -0.35546,-1.6266 -0.53858,-2.4646 -1.43875,-7.1441 -1.77334,-14.0099 -1.71142,-21.2854 0.007,-1.1868 0.015,-2.3736 0.0227,-3.5964 0.21331,-17.8145 2.36702,-35.3239 4.6648,-52.9661 0.10323,-0.7937 0.20647,-1.5874 0.31283,-2.4052 1.1528,-8.7964 2.41163,-17.5703 3.84733,-26.3253 0.18712,-1.1544 0.18712,-1.1544 0.37803,-2.3321 0.90274,-5.3818 0.90274,-5.3818 2.02431,-7.6249 z"
     fill="#fccc3e"
     id="path3" />
  <path
     d="m 286.42046,254.84419 c 3.64582,-0.0289 7.2916,-0.0468 10.9375,-0.0625 l 3.1543,-0.0254 2.99804,-0.01 2.7771,-0.0159 c 2.13306,0.11352 2.13306,0.11352 3.13306,1.11352 0.24379,1.50511 0.42688,3.02012 0.58496,4.53663 l 0.3154,2.9645 0.33401,3.27231 0.35868,3.41416 c 0.39026,3.72867 0.77383,7.45799 1.15695,11.1874 0.26691,2.57066 0.534,5.1413 0.80127,7.71192 1.81863,17.54989 3.58863,35.10474 5.32373,52.66304 l 0.33044,3.3259 c 0.30667,3.0942 0.60985,6.1888 0.91175,9.2835 l 0.27371,2.7543 0.24533,2.5416 0.21432,2.1909 c 0.1651,2.3794 0.14945,4.7687 0.14945,7.1538 h 125 c 2.40924,17.467 4.78145,34.8478 6.5625,52.375 l 0.31381,3.0491 c 1.47471,14.3663 2.80472,28.741 3.93619,43.1384 l 0.19168,2.3828 c 2.96674,37.3045 -1.62687,70.3141 -26.18777,99.6641 -9.04047,10.378 -19.17997,19.0474 -30.81641,26.3906 l -1.79932,1.1368 c -19.92305,12.3576 -42.27832,18.8618 -65.26318,22.6757 l -2.23291,0.3763 c -4.18976,0.6365 -8.24746,0.8657 -12.48755,0.8413 l -2.96995,-0.013 -2.24709,-0.017 c 0.0149,8.0151 0.0565,16.0294 0.13209,24.0441 0.0343,3.7217 0.0594,7.443 0.0635,11.1648 0.004,3.5925 0.0327,7.1841 0.0779,10.7763 0.013,1.3698 0.0173,2.7398 0.0127,4.1097 -0.005,1.9199 0.024,3.8399 0.0544,5.7596 l 0.0202,3.3107 c 0.84878,3.764 2.48279,4.7541 5.63924,6.8348 l 1.80078,1.2656 1.51172,0.9844 2.6875,1.75 c -2.67346,3.6636 -5.07539,5.7725 -9,8 l -1,2 h -2 v -3 l -2.27734,0.5 c -5.10894,0.6862 -10.13791,0.5648 -15.28516,0.5 -2.04292,-0.026 -4.08589,-0.047 -6.12891,-0.062 l -2.72485,-0.035 c -2.60945,0.024 -2.60945,0.024 -5.2085,0.6602 -3.22283,0.5936 -5.37686,-0.3771 -8.37524,-1.5625 0,-3 -2.16388,-3.2985 -0.16388,-5.486 l 0.35844,-0.2456 -2.19456,0.7316 c 3.22742,-3.6484 6.99175,-6.0537 11.07422,-8.6328 2.05363,-1.2309 2.05363,-1.2309 2.92578,-3.3672 0.11994,-1.9091 0.17731,-3.8223 0.20532,-5.7349 l 0.0604,-3.6397 0.0507,-3.9457 c 0.0206,-1.3424 0.0416,-2.6848 0.063,-4.0271 0.0552,-3.5345 0.10463,-7.0691 0.15285,-10.6037 0.0502,-3.6062 0.1059,-7.2123 0.16113,-10.8185 0.10757,-7.0767 0.20902,-14.1535 0.30664,-21.2304 l -2.01392,0.018 -2.67749,0.014 -2.63891,0.018 c -4.27533,-0.081 -8.44656,-0.6635 -12.66968,-1.3003 l -2.74902,-0.409 c -25.27521,-3.8927 -50.16408,-11.4032 -71.25098,-26.341 l -2.99609,-2.0977 c -24.3248,-17.8342 -40.62593,-40.288 -47.00391,-69.9023 l -0.68359,-3.1719 c -8.28429,-46.8491 5.09213,-102.6879 11.68359,-148.8281 h 123 v -11 c 0.15579,-2.3774 0.34966,-4.7528 0.59497,-7.1226 l 0.39534,-3.9 c 0.14504,-1.3753 0.2902,-2.7506 0.43547,-4.1259 0.15024,-1.4617 0.29998,-2.9235 0.44926,-4.3854 0.39342,-3.8395 0.79349,-7.6782 1.19503,-11.5169 0.39666,-3.8029 0.78708,-7.60657 1.17798,-11.41016 0.61301,-5.95847 1.23082,-11.91641 1.85205,-17.87403 0.59706,-5.72633 1.18469,-11.45354 1.76465,-17.18164 0.13707,-1.34771 0.27421,-2.69542 0.41142,-4.04312 0.25419,-2.5006 0.50658,-5.00138 0.75686,-7.50238 l 0.3427,-3.35831 0.29387,-2.91519 c 0.32129,-2.59097 0.78355,-5.1124 1.3304,-7.6644 z m -108,141.99998 c -2.5161,10.7431 -2.5161,10.7431 -4.31641,21.5469 l -0.30906,2.2435 c -0.31791,2.3191 -0.62748,4.6393 -0.93703,6.9596 -0.20978,1.5313 -0.42006,3.0626 -0.63086,4.5938 -1.04092,7.6143 -2.01762,15.2351 -2.91992,22.8672 l -0.24477,2.0687 c -3.52533,30.3393 -5.33873,64.1214 14.23305,89.6578 22.58443,28.0673 56.11215,40.979 91.125,45.0625 40.17713,4.0781 86.28292,0.5455 119.48047,-24.9375 19.91617,-16.3035 31.93663,-34.3185 35.51953,-60.0625 0.42989,-4.927 0.52385,-9.8057 0.5,-14.75 l -0.002,-2.0619 c -0.0762,-19.3337 -2.6705,-38.4856 -5.16516,-57.6277 -0.32007,-2.4645 -0.63419,-4.9297 -0.9458,-7.3953 -0.83752,-6.6222 -1.69084,-13.2423 -2.58985,-19.8565 l -0.3955,-2.9123 c -0.3607,-2.5319 -0.3607,-2.5319 -1.40169,-5.3963 z"
     fill="#fc2910"
     id="path4"
     sodipodi:nodetypes="cccccccccccccccccccccccccccccccccccccccccccccccsccccccccccccccccccccccccccccccccccsccccccccccccccccccccccccc" />
  <path
     d="m 167.42046,485.84417 c 44.77705,-0.9482 94.12883,1.5179 128.55859,33.6016 0.47567,0.4615 0.95133,0.923 1.44141,1.3984 3.17239,-1.4006 5.2332,-3.0706 7.6875,-5.5 32.94424,-29.6606 82.67347,-29.8588 124.3125,-29.5 0.71345,25.0844 -2.70904,47.977 -20.375,67.25 -23.85203,25.2104 -57.99961,38.3664 -92.51172,39.6953 -1.37106,0.021 -2.74216,0.038 -4.11328,0.055 -0.93924,0.019 -1.87849,0.038 -2.84619,0.058 -41.1975,0.7734 -84.57465,-5.4734 -115.85694,-34.7905 -12.18202,-11.7762 -20.88062,-25.5455 -24.29687,-42.2671 -0.20238,-0.8082 -0.40477,-1.6165 -0.61328,-2.4492 -2.04039,-9.0638 -1.55893,-18.3187 -1.38672,-27.5508 z"
     fill="#00adce"
     id="path6" />
  <path
     d="m 299.32622,712.96697 c 3.27251,0.9278 5.70282,2.1403 8.60205,3.9124 1.05615,0.6371 2.11229,1.2742 3.20044,1.9306 0.55644,0.3415 1.11289,0.683 1.68619,1.0348 2.97812,1.8274 5.97467,3.6242 8.96884,5.4252 0.6208,0.3745 1.2416,0.7491 1.88121,1.135 7.54659,4.5411 15.20955,8.8776 22.87642,13.2115 1.7067,0.9649 3.41206,1.9322 5.11737,2.8996 0.96978,0.5475 1.93956,1.0951 2.93872,1.6592 8.50157,5.0261 8.50157,5.0261 9.823,7.6689 0.14326,2.1778 0.22216,4.3599 0.27222,6.5418 0.0243,1.0077 0.0243,1.0077 0.0491,2.0357 0.14028,6.2007 0.21834,12.4028 0.27892,18.6047 0.041,4.1653 0.1013,8.3282 0.20908,12.4924 0.10392,4.0291 0.15835,8.0561 0.17838,12.0864 0.0159,1.5324 0.0491,3.0647 0.10016,4.5963 0.37931,11.9468 0.37931,11.9468 -3.18321,16.0648 -2.55727,1.8232 -5.07144,3.2319 -7.90466,4.5779 -1.01562,0.6276 -2.03124,1.2552 -3.07764,1.9019 -0.85867,0.4835 -1.71735,0.9671 -2.60205,1.4653 -0.99814,0.5678 -1.99627,1.1357 -3.02466,1.7207 -1.04631,0.5898 -2.09263,1.1795 -3.17065,1.7871 -7.37096,4.1823 -14.681,8.4265 -21.87109,12.9141 -0.63525,0.3945 -1.2705,0.789 -1.92499,1.1955 -3.74408,2.3259 -3.74408,2.3259 -7.46924,4.6819 -1.71217,1.0925 -3.4361,2.1666 -5.16046,3.2398 -1.47207,0.9329 -1.47207,0.9329 -2.97388,1.8847 -3.25143,1.4424 -4.40715,1.384 -7.72534,0.209 -1.93527,-0.9545 -3.83292,-1.9871 -5.69922,-3.0703 -1.11472,-0.6421 -2.22943,-1.2842 -3.37793,-1.9458 -1.20359,-0.7027 -2.40703,-1.4057 -3.61035,-2.1089 -1.24347,-0.7205 -2.48729,-1.4403 -3.73145,-2.1596 -2.57425,-1.4893 -5.14631,-2.9822 -7.71728,-4.4771 -3.72541,-2.1627 -7.46657,-4.297 -11.21143,-6.4258 -1.17305,-0.6689 -2.34599,-1.338 -3.5188,-2.0073 -2.19979,-1.2549 -4.40136,-2.5067 -6.60498,-3.7549 -1.00458,-0.576 -2.00916,-1.1521 -3.04419,-1.7456 -0.86915,-0.4952 -1.7383,-0.9903 -2.63378,-1.5005 -1.41104,-0.8931 -1.41104,-0.8931 -2.85059,-1.8042 -0.68882,-0.3208 -1.37764,-0.6416 -2.08733,-0.9721 -2.60102,-1.4479 -4.1249,-2.6291 -5.91267,-5.0279 -1.19125,-5.3849 -1.05416,-10.7154 -0.95703,-16.1953 0.002,-1.5961 0.002,-3.1922 -0.002,-4.7883 0.002,-3.3377 0.0308,-6.6737 0.0805,-10.011 0.0625,-4.2756 0.0673,-8.5489 0.053,-12.8248 -0.006,-3.2928 0.0123,-6.585 0.0393,-9.8776 0.0109,-1.5764 0.0152,-3.1529 0.0127,-4.7293 0.001,-2.203 0.0354,-4.403 0.0786,-6.6054 0.013,-1.2521 0.026,-2.5042 0.0395,-3.7942 0.65511,-3.1741 0.65511,-3.1741 3.02819,-5.5043 2.74567,-1.7453 5.49241,-3.4337 8.32614,-5.0331 1.11504,-0.6327 2.23008,-1.2653 3.3789,-1.9172 0.58846,-0.3313 1.17692,-0.6625 1.78321,-1.0038 1.85194,-1.0427 3.70078,-2.0907 5.54883,-3.1402 2.56873,-1.4588 5.13832,-2.9161 7.70849,-4.3724 6.14032,-3.4822 12.26248,-6.9958 18.38135,-10.5156 1.09659,-0.6275 2.19318,-1.255 3.323,-1.9016 1.52621,-0.8782 1.52621,-0.8782 3.08325,-1.7742 1.33515,-0.7663 1.33515,-0.7663 2.69726,-1.5481 2.42081,-1.3775 2.42081,-1.3775 4.33985,-3.2143 2.05664,-1.2493 2.05664,-1.2493 4.9624,-1.1265 z"
     fill="#0e0d0e"
     id="path7" />
  <path
     d="m 275.42046,689.84417 c 0.66,0.33 1.32,0.66 2,1 -1.375,2 -1.375,2 -3,4 -0.66,0 -1.32,0 -2,0 0.495,1.485 0.495,1.485 1,3 1.47831,0.1941 2.95769,0.3801 4.4375,0.5625 0.82371,0.1044 1.64742,0.2088 2.49609,0.3164 0.68192,0.04 1.36383,0.08 2.06641,0.1211 0.33,-0.33 0.66,-0.66 1,-1 2.14559,-0.088 4.29404,-0.1069 6.44141,-0.098 1.30517,0 2.61035,0.01 3.95507,0.01 1.38868,0.01 2.77735,0.017 4.16602,0.025 1.39258,0.01 2.78515,0.01 4.17773,0.014 3.41997,0.012 6.83985,0.028 10.25977,0.049 0,0.99 0,1.98 0,3 0.66,0 1.32,0 2,0 0.37125,-0.9281 0.37125,-0.9281 0.75,-1.875 1.50002,-2.55 2.61972,-2.8872 5.25,-4.125 1.35549,-1.3108 2.69153,-2.6422 4,-4 6.74663,3.6557 13.47168,7.3506 20.1875,11.0625 0.74749,0.4111 1.49499,0.8221 2.26514,1.2456 2.19223,1.2143 4.37238,2.447 6.54736,3.6919 0.74588,0.4227 1.49177,0.8453 2.26025,1.2808 0.71463,0.4217 1.42925,0.8433 2.16553,1.2778 0.63978,0.3731 1.27956,0.7462 1.93872,1.1306 1.93817,1.5534 2.68167,3.0418 3.6355,5.3108 -1.485,0.495 -1.485,0.495 -3,1 -0.99,-1.485 -0.99,-1.485 -2,-3 -0.68063,0.2888 -1.36125,0.5775 -2.0625,0.875 -3.27026,1.2525 -6.55988,2.2038 -9.9375,3.125 -0.7425,0.2475 -1.485,0.495 -2.25,0.75 -1.75,0.25 -1.75,0.25 -4.75,-1.75 -0.99,0.66 -1.98,1.32 -3,2 -1.97911,-0.5515 -3.95798,-1.104 -5.93359,-1.6679 -3.41277,-0.5484 -5.34199,0.7219 -8.06641,2.6679 -1.40467,2.051 -1.40467,2.051 -2,4 -5.51867,-1.5924 -10.07651,-4.2879 -14.87695,-7.3418 -2.5789,-1.5564 -4.53856,-2.6535 -7.58789,-2.6777 -3.60522,1.4498 -6.76817,3.4299 -10.03516,5.5195 -7.72851,4.9432 -7.72851,4.9432 -12.5,5.5 -1.33543,0.3249 -2.66962,0.6551 -4,1 -1.25665,-2.906 -2,-4.796 -2,-8 -0.66,0 -1.32,0 -2,0 -0.66,-1.98 -1.32,-3.96 -2,-6 -0.66,0.2063 -1.32,0.4125 -2,0.625 -4.0963,0.5121 -7.04236,-0.4846 -11,-1.625 0,0.66 0,1.32 0,2 -3.96,-0.33 -7.92,-0.66 -12,-1 0,-0.99 0,-1.98 0,-3 3.85662,-2.2287 7.71616,-4.4522 11.57837,-6.6711 1.31101,-0.7542 2.62125,-1.5097 3.93066,-2.2666 1.89205,-1.0934 3.78692,-2.1818 5.68238,-3.2693 1.13638,-0.6546 2.27277,-1.3092 3.4436,-1.9837 3.43032,-1.8444 6.71988,-3.4416 10.36499,-4.8093 z"
     fill="#8b6960"
     id="path8" />
  <path
     d="m 251.42046,702.84417 c 0.33,0.66 0.66,1.32 1,2 5.445,-0.495 5.445,-0.495 11,-1 0,0.66 0,1.32 0,2 1.10408,0.091 1.10408,0.091 2.23047,0.1836 0.97582,0.084 1.95164,0.1676 2.95703,0.2539 1.44439,0.1218 1.44439,0.1218 2.91797,0.2461 2.68409,0.2934 5.2558,0.7541 7.89453,1.3164 1.51594,0.2475 1.51594,0.2475 3.0625,0.5 2.9375,0.5 2.9375,0.5 4.77734,1.0039 3.45893,0.7944 6.96919,0.889 10.50391,1.1172 2.65625,0.3789 2.65625,0.3789 4.73828,1.4297 2.32602,1.1512 3.55646,1.0521 6.10547,0.6992 0.6948,-0.088 1.38961,-0.1753 2.10547,-0.2656 3.10746,-0.556 6.17355,-1.2441 9.2522,-1.9404 2.45634,-0.5443 4.91759,-1.0501 7.38452,-1.544 0.81468,-0.165 1.62937,-0.33 2.46875,-0.5 1.67356,-0.3379 3.34808,-0.6711 5.02343,-1 0.80696,-0.165 1.61391,-0.33 2.44532,-0.5 0.723,-0.1444 1.446,-0.2887 2.19091,-0.4375 2.23873,-0.5428 2.23873,-0.5428 4.9419,-2.5625 4.29494,0.3136 7.5077,2.1778 11.1875,4.3125 1.04543,0.5943 2.09086,1.1885 3.16797,1.8008 2.60773,1.8605 3.57844,2.9239 4.64453,5.8867 -0.99,0.33 -1.98,0.66 -3,1 -0.99,-1.485 -0.99,-1.485 -2,-3 -0.68063,0.2888 -1.36125,0.5775 -2.0625,0.875 -3.27026,1.2525 -6.55988,2.2038 -9.9375,3.125 -0.7425,0.2475 -1.485,0.495 -2.25,0.75 -1.75,0.25 -1.75,0.25 -4.75,-1.75 -0.99,0.66 -1.98,1.32 -3,2 -1.97911,-0.5515 -3.95798,-1.104 -5.93359,-1.6679 -3.41277,-0.5484 -5.34199,0.7219 -8.06641,2.6679 -1.40467,2.051 -1.40467,2.051 -2,4 -5.51867,-1.5924 -10.07651,-4.2879 -14.87695,-7.3418 -2.5789,-1.5564 -4.53856,-2.6535 -7.58789,-2.6777 -3.60522,1.4498 -6.76817,3.4299 -10.03516,5.5195 -7.72851,4.9432 -7.72851,4.9432 -12.5,5.5 -1.33543,0.3249 -2.66962,0.6551 -4,1 -1.25665,-2.906 -2,-4.796 -2,-8 -0.66,0 -1.32,0 -2,0 -0.66,-1.98 -1.32,-3.96 -2,-6 -0.66,0.2063 -1.32,0.4125 -2,0.625 -4.0963,0.5121 -7.04236,-0.4846 -11,-1.625 0,0.66 0,1.32 0,2 -3.96,-0.33 -7.92,-0.66 -12,-1 0,-0.99 0,-1.98 0,-3 3.63,-1.98 7.26,-3.96 11,-6 z"
     fill="#647d81"
     id="path9" />
  <path
     d="m 278.42046,701.84417 c 0.33,0.33 0.66,0.66 1,1 2.97095,0.2871 5.94222,0.4486 8.92187,0.6211 3.04886,0.3753 5.25987,1.2118 8.07813,2.3789 2.59256,0.4822 2.59256,0.4822 5.1875,0.6875 1.28971,0.1296 1.28971,0.1296 2.60547,0.2617 2.25052,0.2239 2.25052,0.2239 4.20703,-0.9492 1.52526,-0.049 3.05273,-0.037 4.57812,0.01 0.91395,0.017 1.82789,0.034 2.76954,0.051 1.91947,0.044 3.83878,0.096 5.75781,0.1563 5.49445,0.085 9.07983,-0.2659 13.89453,-3.2149 1.65741,-0.3767 3.32345,-0.7206 5,-1 0.66,-0.33 1.32,-0.66 2,-1 1.32,0.99 2.64,1.98 4,3 -4.47685,3.1874 -8.89966,4.0517 -14.1875,5.0625 -1.27593,0.2549 -1.27593,0.2549 -2.57764,0.5149 -1.67144,0.3332 -3.34362,0.6627 -5.0166,0.988 -2.62035,0.5134 -5.23103,1.0691 -7.84326,1.6221 -12.46038,2.4223 -12.46038,2.4223 -16.375,-0.1875 -2.60399,-0.4219 -2.60399,-0.4219 -5.4375,-0.5625 -3.32152,-0.2214 -6.35328,-0.5567 -9.5625,-1.4375 -1.99884,-0.3402 -3.99891,-0.6733 -6,-1 -1.66677,-0.3328 -3.33343,-0.6662 -5,-1 -1.93678,-0.3581 -3.87429,-0.7122 -5.8125,-1.0625 -0.97582,-0.1766 -1.95164,-0.3532 -2.95703,-0.5351 -0.73606,-0.1328 -1.47211,-0.2656 -2.23047,-0.4024 0,-0.66 0,-1.32 0,-2 -0.51563,0.165 -1.03125,0.33 -1.5625,0.5 -3.17114,0.6505 -6.20968,0.5621 -9.4375,0.5 0,-0.99 0,-1.98 0,-3 7.5149,-4.3938 17.96532,-2.0309 26,0 z"
     fill="#806f6a"
     id="path10" />
  <path
     d="m 347.42046,704.84417 c 5.52572,1.5196 12.26633,3.9606 15.23437,9.1641 0.25266,0.6058 0.50532,1.2117 0.76563,1.8359 -0.99,0.33 -1.98,0.66 -3,1 -0.66,-0.99 -1.32,-1.98 -2,-3 -0.68063,0.2888 -1.36125,0.5775 -2.0625,0.875 -3.27026,1.2525 -6.55988,2.2038 -9.9375,3.125 -0.7425,0.2475 -1.485,0.495 -2.25,0.75 -1.75,0.25 -1.75,0.25 -4.75,-1.75 -0.99,0.66 -1.98,1.32 -3,2 -1.97911,-0.5515 -3.95798,-1.104 -5.93359,-1.6679 -3.41277,-0.5484 -5.34199,0.7219 -8.06641,2.6679 -1.40467,2.051 -1.40467,2.051 -2,4 -5.31027,-1.4603 -9.4633,-3.9832 -14,-7 0.66,-0.33 1.32,-0.66 2,-1 0.83531,0.2785 0.83531,0.2785 1.6875,0.5625 3.42725,0.6484 6.03341,-0.5085 9.3125,-1.5625 2.76182,-0.863 4.46267,-0.9832 7.4375,-0.875 3.49868,0.1754 3.49868,0.1754 5.79687,-1.5273 3.40133,-1.9649 6.76155,-2.6168 10.57813,-3.2852 1.03931,-0.1943 1.03931,-0.1943 2.09961,-0.3926 1.69434,-0.3155 3.39091,-0.6189 5.08789,-0.9199 -0.99,-0.99 -1.98,-1.98 -3,-3 z"
     fill="#458d9b"
     id="path11" />
  <path
     d="m 324.42046,690.84417 c 1.75215,0.9335 3.50163,1.872 5.25,2.8125 1.4618,0.7831 1.4618,0.7831 2.95312,1.5821 2.43043,1.3951 4.60476,2.8674 6.79688,4.6054 -1.8674,1.8674 -5.05668,1.3073 -7.5625,1.4375 -4.15759,0.258 -8.04994,0.553 -12.0625,1.6875 -3.375,0.875 -3.375,0.875 -5.21094,0.3672 -2.90623,-0.661 -5.23699,0.01 -8.16406,0.5078 -2.08682,-0.082 -4.17188,-0.2302 -6.25,-0.4375 -5.60735,-0.5021 -11.12361,-0.6768 -16.75,-0.5625 0,-0.66 0,-1.32 0,-2 -1.32,-0.33 -2.64,-0.66 -4,-1 3.59265,-2.2473 6.55142,-2.232 10.73437,-2.1953 1.29551,0.01 2.59102,0.013 3.92579,0.02 1.36328,0.017 2.72656,0.034 4.08984,0.051 1.3789,0.01 2.75781,0.019 4.13672,0.027 3.37127,0.024 6.74219,0.056 10.11328,0.098 0,0.99 0,1.98 0,3 0.66,0 1.32,0 2,0 0.2475,-0.6187 0.495,-1.2375 0.75,-1.875 1.50002,-2.55 2.61972,-2.8872 5.25,-4.125 1.35549,-1.3108 2.69153,-2.6422 4,-4 z"
     fill="#a85949"
     id="path12" />
  <path
     d="m 346.42046,703.96917 c 2.54057,1.1115 3.42213,2.6427 5,4.875 -1.09699,0.1818 -2.19399,0.3635 -3.32422,0.5508 -1.45452,0.2534 -2.90894,0.5073 -4.36328,0.7617 -0.72123,0.118 -1.44246,0.2359 -2.18555,0.3574 -4.38186,0.7804 -7.29609,1.9977 -11.12695,4.3301 -2.53516,0.2227 -2.53516,0.2227 -5.0625,0.062 -3.70206,-0.2224 -5.70731,0.1197 -8.9375,1.9375 -4.92499,1.3133 -8.22672,0.7112 -13,-1 -0.99,-0.66 -1.98,-1.32 -3,-2 -4.72186,-0.5132 -7.10118,0.4008 -11,3 -0.66,0 -1.32,0 -2,0 0,-0.66 0,-1.32 0,-2 -0.99,0 -1.98,0 -3,0 -0.33,-0.66 -0.66,-1.32 -1,-2 -0.99,-0.33 -1.98,-0.66 -3,-1 0,-0.66 0,-1.32 0,-2 14.7323,-0.3678 14.7323,-0.3678 21,2 2.94908,0.983 4.1441,1.0454 7.125,0.6875 1.05574,-0.1179 1.05574,-0.1179 2.13281,-0.2383 3.12954,-0.5126 6.19775,-1.2009 9.28955,-1.903 2.45536,-0.5468 4.91577,-1.0526 7.38233,-1.5462 0.81468,-0.165 1.62937,-0.33 2.46875,-0.5 1.67356,-0.3379 3.34808,-0.6711 5.02343,-1 0.80696,-0.165 1.61391,-0.33 2.44532,-0.5 0.723,-0.1444 1.446,-0.2887 2.19091,-0.4375 2.69471,-0.7805 4.06293,-2.6174 6.9419,-2.4375 z"
     fill="#5c8188"
     id="path13" />
  <path
     d="m 340.42046,700.84417 c 1.98,0.66 3.96,1.32 6,2 -4.35941,4.2268 -8.4214,5.0814 -14.1875,6.125 -0.85062,0.1654 -1.70124,0.3308 -2.57764,0.5012 -1.6711,0.3242 -3.34328,0.6428 -5.0166,0.9554 -2.62336,0.4948 -5.23243,1.0491 -7.84326,1.6059 -12.46038,2.4223 -12.46038,2.4223 -16.375,-0.1875 -2.60399,-0.4219 -2.60399,-0.4219 -5.4375,-0.5625 -3.32152,-0.2214 -6.35328,-0.5567 -9.5625,-1.4375 -1.99884,-0.3402 -3.99891,-0.6733 -6,-1 -1.66805,-0.3263 -3.33524,-0.6572 -5,-1 0.33,-0.66 0.66,-1.32 1,-2 22.85671,0.9284 22.85671,0.9284 31,5 1.8015,-0.223 3.59354,-0.5263 5.375,-0.875 0.95648,-0.183 1.91297,-0.3661 2.89844,-0.5547 1.6085,-0.3364 3.2125,-0.6993 4.80078,-1.1211 2.13715,-0.4985 4.17442,-0.6289 6.36328,-0.7617 4.31716,-0.431 6.29871,-1.7863 9.5625,-4.6875 2.8125,-0.75 2.8125,-0.75 5,-1 0,-0.33 0,-0.66 0,-1 z"
     fill="#707676"
     id="path14" />
  <path
     d="m 290.15483,697.64887 c 1.29551,0.01 2.59102,0.013 3.92579,0.02 1.36328,0.017 2.72656,0.034 4.08984,0.051 1.3789,0.01 2.75781,0.019 4.13672,0.027 3.37127,0.024 6.74219,0.056 10.11328,0.098 0,0.99 0,1.98 0,3 0.99,0.33 1.98,0.66 3,1 -4.45234,2.2918 -8.34335,2.0528 -13.1875,1.625 -1.51286,-0.1129 -3.02588,-0.2236 -4.53906,-0.332 -0.72993,-0.054 -1.45987,-0.1073 -2.21192,-0.1626 -4.02428,-0.2545 -8.03192,-0.1944 -12.06152,-0.1304 0,-0.66 0,-1.32 0,-2 -1.32,-0.33 -2.64,-0.66 -4,-1 3.59265,-2.2473 6.55142,-2.232 10.73437,-2.1953 z"
     fill="#9f5f51"
     id="path15" />
  <path
     d="m 268.98296,710.78167 c 1.20656,0.031 1.20656,0.031 2.4375,0.062 0.33,0.99 0.66,1.98 1,3 0.66,0 1.32,0 2,0 0.39187,0.4331 0.78375,0.8663 1.1875,1.3125 2.62504,2.444 5.48539,3.3692 8.8125,4.6875 -2.87183,3.2973 -4.67016,4.4588 -9,5 -1.33543,0.3249 -2.66962,0.6551 -4,1 -1.25665,-2.906 -2,-4.796 -2,-8 -0.66,0 -1.32,0 -2,0 -0.66,-1.98 -1.32,-3.96 -2,-6 1,-1 1,-1 3.5625,-1.0625 z"
     fill="#3292a6"
     id="path16" />
  <path
     d="m 279.42046,709.84417 c 0.33,0.66 0.66,1.32 1,2 2.02463,0.6522 2.02463,0.6522 4,1 0,0.66 0,1.32 0,2 0.99,0 1.98,0 3,0 0,0.66 0,1.32 0,2 1.11375,-0.6806 2.2275,-1.3612 3.375,-2.0625 1.89844,-1.1601 1.89844,-1.1601 3.625,-1.9375 0.66,0.33 1.32,0.66 2,1 -3.48035,2.8319 -6.84918,5.2583 -11,7 -3.87018,-0.4243 -6.87829,-1.6748 -10,-4 -0.33,-0.99 -0.66,-1.98 -1,-3 -0.66,0 -1.32,0 -2,0 -0.33,-0.99 -0.66,-1.98 -1,-3 1.13437,0.021 2.26875,0.041 3.4375,0.062 3.37826,0.3533 3.37826,0.3533 4.5625,-1.0625 z"
     fill="#4a8895"
     id="path17" />
  <path
     d="m 277.42046,690.84417 c -1.375,2 -1.375,2 -3,4 -0.66,0 -1.32,0 -2,0 0.33,0.99 0.66,1.98 1,3 2.475,0.495 2.475,0.495 5,1 -1.06641,1.5117 -1.06641,1.5117 -3,3 -3.21484,0.1446 -3.21484,0.1446 -6.9375,-0.1875 -1.83885,-0.145 -1.83885,-0.145 -3.71484,-0.2929 -2.94353,-0.4569 -4.83516,-0.9894 -7.34766,-2.5196 2.0607,-1.1284 4.12343,-2.2528 6.1875,-3.375 1.14855,-0.6265 2.29711,-1.2529 3.48047,-1.8984 7.75172,-4.0167 7.75172,-4.0167 10.33203,-2.7266 z"
     fill="#9d6154"
     id="path18" />
  <path
     d="m 252.42046,712.84417 c 1.6634,0.3493 3.32905,0.6889 5,1 -0.33,1.32 -0.66,2.64 -1,4 -4.21913,-0.4794 -6.79663,-1.1662 -10,-4 -0.33,0.66 -0.66,1.32 -1,2 -3.96,0 -7.92,0 -12,0 0,-0.99 0,-1.98 0,-3 6.16024,-4.7522 12.04478,-1.9151 19,0 z"
     fill="#21a0b9"
     id="path19" />
  <path
     d="m 251.42046,702.84417 c 0.33,0.66 0.66,1.32 1,2 -1.98,0.99 -1.98,0.99 -4,2 5.28,1.32 10.56,2.64 16,4 -5.23156,2.6158 -6.59738,1.6208 -12,0 0,0.66 0,1.32 0,2 -3.96,-0.33 -7.92,-0.66 -12,-1 0,-0.99 0,-1.98 0,-3 3.63,-1.98 7.26,-3.96 11,-6 z"
     fill="#458b9a"
     id="path21" />
  <path
     d="m 354.42046,708.84417 c 3.78384,0.925 5.56694,1.3937 7.875,4.625 0.55687,1.1756 0.55687,1.1756 1.125,2.375 -0.99,0.33 -1.98,0.66 -3,1 -0.66,-0.99 -1.32,-1.98 -2,-3 -0.68063,0.2888 -1.36125,0.5775 -2.0625,0.875 -4.54047,1.7389 -9.21262,2.991 -13.9375,4.125 -0.33,-0.99 -0.66,-1.98 -1,-3 4.27066,-2.1874 8.57933,-4.1433 13,-6 0,-0.33 0,-0.66 0,-1 z"
     fill="#3093a8"
     id="path22" />
  <path
     d="m 256.42046,699.84417 c 0.66,0.33 1.32,0.66 2,1 1.39302,0.1532 2.78973,0.274 4.1875,0.375 4.46444,0.4407 7.79726,1.6601 11.8125,3.625 0,0.66 0,1.32 0,2 -5.445,-0.495 -5.445,-0.495 -11,-1 0,-0.66 0,-1.32 0,-2 -0.51563,0.165 -1.03125,0.33 -1.5625,0.5 -3.17114,0.6505 -6.20968,0.5621 -9.4375,0.5 0,-0.99 0,-1.98 0,-3 1.875,-1.0625 1.875,-1.0625 4,-2 z"
     fill="#7a7674"
     id="path24" />
  <path
     d="m 324.42046,690.84417 c 2.97,1.65 5.94,3.3 9,5 0,0.33 0,0.66 0,1 -4.20152,1.3736 -6.76732,2.1287 -11,1 -2.70466,0.8646 -2.70466,0.8646 -5,2 -0.33,-0.99 -0.66,-1.98 -1,-3 0.5775,-0.2475 1.155,-0.495 1.75,-0.75 2.5503,-1.4168 4.26786,-3.1263 6.25,-5.25 z"
     fill="#bd513d"
     id="path25" />
  <path
     d="m 283.42046,697.84417 c 9.57,0 19.14,0 29,0 0,0.99 0,1.98 0,3 -6.60124,0.7888 -12.43275,1.0018 -19,0 -1.0725,0.041 -2.145,0.082 -3.25,0.125 -2.75,-0.125 -2.75,-0.125 -6.75,-3.125 z"
     fill="#ac5848"
     id="path26" />
  <path
     d="m 351.42046,707.84417 c 0.66,0.66 1.32,1.32 2,2 -0.94359,0.2727 -0.94359,0.2727 -1.90625,0.5508 -4.23746,1.2444 -8.37969,2.525 -12.46875,4.1992 -3.58796,1.2372 -4.27145,1.3432 -7.625,0.25 0.33,-0.99 0.66,-1.98 1,-3 3.88231,-1.4329 7.95084,-2.1666 12,-3 0.75281,-0.1585 1.50562,-0.3171 2.28125,-0.4804 1.84375,-0.3321 1.84375,-0.3321 4.71875,-0.5196 z"
     fill="#4a8895"
     id="path27" />
  <path
     d="m 346.60796,704.21917 c 0.89719,0.3094 0.89719,0.3094 1.8125,0.625 0,0.66 0,1.32 0,2 -9.58747,3.3212 -9.58747,3.3212 -14,4 -0.95906,0.1721 -0.95906,0.1721 -1.9375,0.3477 -4.13417,0.6611 -6.4607,0.746 -10.0625,-1.3477 0.83978,-0.166 0.83978,-0.166 1.69653,-0.3354 2.54009,-0.5063 5.07799,-1.0228 7.61597,-1.5396 0.88107,-0.174 1.76215,-0.348 2.66992,-0.5273 0.84756,-0.174 1.69512,-0.3481 2.56836,-0.5274 1.17043,-0.2356 1.17043,-0.2356 2.3645,-0.476 2.93456,-0.8365 4.14109,-2.756 7.27222,-2.2193 z m -26.1875,6.625 c 2,1 2,1 2,1 z"
     fill="#647c7f"
     id="path28" />
  <path
     d="m 277.42046,699.84417 c 2.00721,0.2868 4.00859,0.6187 6,1 0,0.66 0,1.32 0,2 0.66,-0.33 1.32,-0.66 2,-1 2.44929,-0.099 4.86381,-0.139 7.3125,-0.125 1.31613,0 2.63226,-0.01 3.98828,-0.01 3.05842,0.1098 5.73836,0.4112 8.69922,1.1328 0,0.33 0,0.66 0,1 -4.27071,0.087 -8.54119,0.1404 -12.8125,0.1875 -1.82241,0.038 -1.82241,0.038 -3.68164,0.076 -1.74507,0.014 -1.74507,0.014 -3.52539,0.029 -1.07355,0.016 -2.1471,0.031 -3.25318,0.048 -2.72729,-0.3406 -2.72729,-0.3406 -4.60107,-1.8589 -0.37165,-0.4889 -0.74331,-0.9779 -1.12622,-1.4817 0.33,-0.33 0.66,-0.66 1,-1 z"
     fill="#956559"
     id="path29" />
  <path
     d="m 248.42046,705.84417 c 2.04225,0.1152 4.0838,0.2426 6.125,0.375 1.13695,0.07 2.27391,0.1392 3.44531,0.211 3.39958,0.4104 6.22849,1.226 9.42969,2.414 0.99,0.33 1.98,0.66 3,1 -0.33,0.66 -0.66,1.32 -1,2 -7.4597,-0.746 -14.68951,-2.3674 -22,-4 0.33,-0.66 0.66,-1.32 1,-2 z"
     fill="#54848d"
     id="path30" />
  <path
     d="m 340.42046,700.84417 c 1.98,0.66 3.96,1.32 6,2 -4.26312,4.1299 -7.28759,4.6127 -13,5 0,-1.32 0,-2.64 0,-4 2.31,-0.66 4.62,-1.32 7,-2 0,-0.33 0,-0.66 0,-1 z"
     fill="#7a7572"
     id="path31" />
  <path
     d="m 242.42046,710.84417 c 4.95,0.99 9.9,1.98 15,3 -0.33,1.32 -0.66,2.64 -1,4 -4.34134,-0.4933 -6.59116,-1.3609 -10,-4 -2.64935,-0.7143 -2.64935,-0.7143 -5,-1 0.33,-0.66 0.66,-1.32 1,-2 z"
     fill="#2798af"
     id="path33" />
  <path
     d="m 306.42046,715.84417 c 1.05187,0.4331 1.05187,0.4331 2.125,0.875 0.94875,0.3713 1.8975,0.7425 2.875,1.125 1.01062,0.4331 2.02125,0.8663 3.0625,1.3125 2.9477,1.0437 2.9477,1.0437 5.3125,-0.6875 0.53625,-0.5362 1.0725,-1.0725 1.625,-1.625 0.66,0.66 1.32,1.32 2,2 -0.99,1.485 -0.99,1.485 -2,3 -0.33,0.66 -0.66,1.32 -1,2 -5.23519,-1.4397 -9.63026,-3.8169 -14,-7 0,-0.33 0,-0.66 0,-1 z"
     fill="#3d98a9"
     id="path34" />
  <path
     d="m 428.42046,483.84417 c 0,0.33 0,0.66 0,1 -3.42574,0.7753 -6.57239,1.1192 -10.08203,1.0977 -0.93135,0 -1.8627,-0.01 -2.82227,-0.01 -0.9597,-0.01 -1.91941,-0.017 -2.9082,-0.025 -1.46857,-0.01 -1.46857,-0.01 -2.9668,-0.014 -2.40696,-0.012 -4.8138,-0.028 -7.2207,-0.049 0,-0.33 0,-0.66 0,-1 8.92604,-1.5977 16.99639,-2.2203 26,-1 z"
     fill="#fdd220"
     id="path36" />
  <path
     d="m 332.42046,697.84417 c 1.98,0.66 3.96,1.32 6,2 0,0.33 0,0.66 0,1 -1.37672,0.073 -1.37672,0.073 -2.78125,0.1485 -6.64739,0.4049 -12.83263,0.9357 -19.21875,2.8515 1.83519,-2.5859 3.29793,-3.8482 6.42187,-4.5234 7.02813,-0.7516 7.02813,-0.7516 9.57813,0.5234 0,-0.66 0,-1.32 0,-2 z"
     fill="#9b5f52"
     id="path38" />
  <path
     d="m 312.80327,713.64887 c 0.90492,0.023 1.80985,0.046 2.74219,0.07 1.36512,0.027 1.36512,0.027 2.75781,0.055 0.69867,0.023 1.39735,0.046 2.11719,0.07 -2.28483,2.5923 -2.98163,2.9958 -6.5625,3.8125 -1.13438,0.062 -2.26875,0.1238 -3.4375,0.1875 -0.66,-0.66 -1.32,-1.32 -2,-2 2,-2 2,-2 4.38281,-2.1953 z"
     fill="#52848c"
     id="path45" />
  <path
     d="m 311.42046,680.84417 c 0.4357,0.3867 0.87141,0.7735 1.32031,1.1719 3.73714,3.268 7.48729,6.1695 11.67969,8.8281 -1.32,0.33 -2.64,0.66 -4,1 0,-0.66 0,-1.32 0,-2 -0.53625,-0.082 -1.0725,-0.165 -1.625,-0.25 -3.21024,-1.0137 -5.63792,-2.8216 -8.375,-4.75 0.33,-1.32 0.66,-2.64 1,-4 z"
     fill="#e84027"
     id="path47" />
  <path
     d="m 304.29546,710.34417 c 2.09733,0.6673 2.09733,0.6673 4.0625,0 2.60621,-0.6318 4.48923,-0.1433 7.0625,0.5 -2.91747,1.945 -4.15107,2.3939 -7.5,2.8125 -0.77344,0.1096 -1.54688,0.2192 -2.34375,0.3321 -2.15625,-0.1446 -2.15625,-0.1446 -3.9375,-1.6329 -0.40219,-0.4988 -0.80438,-0.9977 -1.21875,-1.5117 2,-1 2,-1 3.875,-0.5 z"
     fill="#677b7d"
     id="path51" />
  <path
     d="m 240.42046,708.84417 c 2.31,0 4.62,0 7,0 0,0.66 0,1.32 0,2 1.65,0.33 3.3,0.66 5,1 -4.08443,1.5317 -7.79456,0.6308 -12,0 0,-0.99 0,-1.98 0,-3 z"
     fill="#3890a3"
     id="path53" />
  <path
     d="m 251.42046,702.84417 c 0.33,0.66 0.66,1.32 1,2 -1.98,0.99 -1.98,0.99 -4,2 1.32,0.66 2.64,1.32 4,2 -3.63,0.33 -7.26,0.66 -11,1 2.99052,-3.3356 5.93185,-5.1508 10,-7 z"
     fill="#5a949f"
     id="path54" />
  <path
     d="m 294.42046,712.84417 c 0.66,0.33 1.32,0.66 2,1 -3.63,2.31 -7.26,4.62 -11,7 -0.99,-0.66 -1.98,-1.32 -3,-2 0.99,0 1.98,0 3,0 0,-0.66 0,-1.32 0,-2 1.11375,-0.4744 2.2275,-0.9487 3.375,-1.4375 1.89211,-0.8155 3.78213,-1.641 5.625,-2.5625 z"
     fill="#4896a3"
     id="path55" />
  <path
     d="m 330.42046,700.84417 c -0.99,1.485 -0.99,1.485 -2,3 -2.38281,0.293 -2.38281,0.293 -5.125,0.1875 -0.91008,-0.027 -1.82016,-0.054 -2.75781,-0.082 -0.69868,-0.035 -1.39735,-0.07 -2.11719,-0.1055 4.21628,-2.8108 7.02952,-3.1104 12,-3 z"
     fill="#93655a"
     id="path56" />
  <path
     d="m 354.42046,708.84417 c 3.78384,0.925 5.56694,1.3937 7.875,4.625 0.55687,1.1756 0.55687,1.1756 1.125,2.375 -0.99,0.33 -1.98,0.66 -3,1 -0.43313,-0.7631 -0.86625,-1.5262 -1.3125,-2.3125 -1.42437,-2.2684 -2.7201,-3.9075 -4.6875,-5.6875 z"
     fill="#2fa3b9"
     id="path61" />
  <path
     d="m 328.42046,696.84417 c 6.4,-0.3692 6.4,-0.3692 9.4375,1.5 0.51562,0.495 1.03125,0.99 1.5625,1.5 -4.75,-0.875 -4.75,-0.875 -7,-2 0,0.66 0,1.32 0,2 -1.65,-0.33 -3.3,-0.66 -5,-1 0.33,-0.66 0.66,-1.32 1,-2 z"
     fill="#b05f4f"
     id="path62" />
  <path
     d="m 337.42046,713.84417 c 0.66,0.33 1.32,0.66 2,1 -0.66,1.32 -1.32,2.64 -2,4 -1.65,-0.33 -3.3,-0.66 -5,-1 1.63412,-1.7084 2.86906,-2.9345 5,-4 z"
     fill="#3691a4"
     id="path63" />
  <path
     d="m 284.42046,720.84417 c -4.30769,3.0769 -4.30769,3.0769 -7.8125,2.6875 -0.72188,-0.2269 -1.44375,-0.4537 -2.1875,-0.6875 2.79347,-2.7935 6.34464,-3.8277 10,-2 z"
     fill="#25a4bc"
     id="path65" />
  <path
     d="m 261.42046,696.84417 c 3.875,1.75 3.875,1.75 5,4 -2.97,-0.33 -5.94,-0.66 -9,-1 1.32,-0.99 2.64,-1.98 4,-3 z"
     fill="#a3695b"
     id="path66" />
  <path
     d="m 294.42046,712.84417 c -4.75,4 -4.75,4 -7,4 -0.33,-0.99 -0.66,-1.98 -1,-3 2.92825,-0.9761 4.95613,-1.0822 8,-1 z"
     fill="#51838d"
     id="path70" />
  <g
     id="g79"
     transform="translate(-2.5326,2.53257)">
    <path
       d="m 279.95301,688.31162 c -1.375,2 -1.375,2 -3,4 -0.66,0 -1.32,0 -2,0 0.495,1.485 0.495,1.485 1,3 1.47831,0.19413 2.95769,0.38013 4.4375,0.5625 0.82371,0.10442 1.64742,0.20883 2.49609,0.31641 0.68192,0.04 1.36383,0.0799 2.06641,0.12109 0.33,-0.33 0.66,-0.66 1,-1 2.14559,-0.0877 4.29404,-0.10695 6.44141,-0.0976 1.30517,0.003 2.61035,0.006 3.95507,0.01 1.38868,0.008 2.77735,0.0168 4.16602,0.0254 1.39258,0.005 2.78515,0.01 4.17773,0.0137 3.41997,0.0118 6.83985,0.0283 10.25977,0.0488 0,0.99 0,1.98 0,3 0.66,0 1.32,0 2,0 0.37125,-0.92812 0.37125,-0.92812 0.75,-1.875 1.50002,-2.55004 2.61972,-2.88722 5.25,-4.125 1.35549,-1.3108 2.69153,-2.64225 4,-4 3.06642,1.66155 6.12778,3.33217 9.18652,5.00782 1.2212,0.66814 2.44322,1.33478 3.66602,2 9.55454,5.20368 18.99157,10.60128 28.36279,16.1275 1.73808,1.02472 3.47815,2.04607 5.21826,3.06732 20.33309,12.04957 20.33309,12.04957 23.56641,18.79736 0.93343,5.09035 1.14363,10.07934 1.12939,15.23926 0.003,1.18935 0.003,1.18935 0.005,2.40273 0.004,2.60373 10e-4,5.2074 -0.002,7.81114 6.8e-4,1.82452 0.002,3.64905 0.003,5.47357 0.001,3.81953 -6.6e-4,7.63903 -0.005,11.45856 -0.006,4.86949 -0.002,9.73893 0.004,14.60842 0.004,3.76805 0.002,7.53609 -1.3e-4,11.30414 -6.6e-4,1.79395 1.4e-4,3.5879 0.002,5.38185 0.0293,28.70498 0.0293,28.70498 -6.13629,35.32033 -7.18838,5.89385 -15.10963,10.5758 -23.1875,15.125 -1.71738,0.97804 -3.43474,1.9561 -5.15146,2.93529 -1.16739,0.66561 -2.33522,1.33046 -3.50348,1.99454 -4.83669,2.75149 -9.63741,5.56142 -14.4332,8.38341 -8.92414,5.24842 -17.8993,10.3908 -26.97436,15.37426 -1.38494,0.7651 -1.38494,0.7651 -2.79785,1.54566 -1.28343,0.69863 -1.28343,0.69863 -2.59278,1.41138 -0.74797,0.40839 -1.49595,0.81678 -2.2666,1.23754 -5.16149,2.44888 -10.49132,2.93127 -16.09277,1.99292 -11.76961,-4.51942 -22.60272,-11.7519 -33.41797,-18.14062 -4.58245,-2.70103 -9.18877,-5.35331 -13.82031,-7.96875 -37.77059,-21.33641 -37.77059,-21.33641 -40.94922,-30.20313 -1.50733,-6.84096 -1.96351,-13.46359 -1.97363,-20.4392 -0.007,-1.25291 -0.007,-1.25291 -0.0151,-2.53113 -0.0145,-2.73776 -0.0214,-5.47547 -0.0269,-8.21326 -0.004,-1.41189 -0.004,-1.41189 -0.009,-2.85231 -0.0149,-4.97705 -0.0242,-9.95407 -0.0285,-14.93114 -0.005,-5.12198 -0.0295,-10.2437 -0.058,-15.3656 -0.0187,-3.95755 -0.0238,-7.91504 -0.0254,-11.87263 -0.003,-1.88773 -0.011,-3.77545 -0.0242,-5.66313 -0.0172,-2.6462 -0.0152,-5.29176 -0.009,-7.93799 -0.009,-0.76859 -0.0184,-1.53718 -0.0279,-2.32906 0.0509,-6.70238 1.16425,-13.16524 5.82968,-18.18095 4.86986,-3.50516 10.21242,-6.36292 15.42969,-9.3086 1.73729,-0.99087 3.47457,-1.98176 5.21126,-2.97369 1.18904,-0.67888 2.37849,-1.35706 3.56833,-2.03455 7.14818,-4.07223 14.24219,-8.23694 21.33906,-12.39776 20.8843,-12.21752 20.8843,-12.21752 24.00635,-10.6565 z"
       fill="#01aecd"
       id="path5" />
    <path
       d="m 322.98577,881.6823 c 1.38218,-2.01233 1.38218,-2.01233 3.01567,-4.02464 h 2.01045 l -1.00522,-3.01847 c -1.48604,-0.19533 -2.97314,-0.38244 -4.46068,-0.56595 -0.82803,-0.10508 -1.65605,-0.21012 -2.50914,-0.31835 -0.68548,-0.0403 -1.37095,-0.0803 -2.07721,-0.12195 l -1.00524,1.00615 c -2.15678,0.0883 -4.31646,0.10761 -6.47503,0.0984 -1.312,-0.003 -2.624,-0.007 -3.97574,-0.0107 -1.39595,-0.008 -2.79187,-0.0167 -4.18778,-0.0257 -1.39986,-0.004 -2.79972,-0.0107 -4.19956,-0.0146 -3.43785,-0.0119 -6.8756,-0.0286 -10.31337,-0.0491 v -3.01846 h -2.01045 c -0.37319,0.93384 -0.37319,0.93384 -0.75392,1.88653 -1.50785,2.56574 -2.6334,2.90499 -5.27743,4.15038 -1.36257,1.31887 -2.70559,2.65854 -4.0209,4.02462 -3.08244,-1.67175 -6.15978,-3.35267 -9.23451,-5.03863 -1.22759,-0.67224 -2.456,-1.34298 -3.68517,-2.01231 -9.60446,-5.2357 -19.0908,-10.66651 -28.51097,-16.22676 -1.74714,-1.03102 -3.49631,-2.05866 -5.24551,-3.0862 -20.43931,-12.1237 -20.43931,-12.1237 -23.68953,-18.91301 -0.93829,-5.12168 -1.14959,-10.14136 -1.13529,-15.33304 -0.003,-1.19666 -0.003,-1.19666 -0.004,-2.41751 -0.004,-2.61977 -0.003,-5.23946 0.003,-7.85923 -6.8e-4,-1.83574 -0.003,-3.6715 -0.003,-5.50725 -9.6e-4,-3.84303 6.7e-4,-7.68604 0.004,-11.52905 0.007,-4.89949 0.003,-9.79888 -0.004,-14.69834 -0.004,-3.79125 -0.003,-7.58246 1.3e-4,-11.37371 6.7e-4,-1.80498 -1.3e-4,-3.60997 -0.003,-5.41497 -0.0293,-28.88164 -0.0293,-28.88164 6.16836,-35.53769 7.22595,-5.93013 15.18858,-10.64088 23.30864,-15.2181 1.72635,-0.98405 3.45268,-1.96811 5.17838,-2.95334 1.17349,-0.66971 2.34741,-1.33865 3.52177,-2.0068 4.86196,-2.76844 9.68777,-5.59568 14.50862,-8.43499 8.97074,-5.28074 17.9928,-10.45478 27.11527,-15.4689 l 2.81248,-1.55516 c 1.29012,-0.70294 1.29012,-0.70294 2.60631,-1.42008 0.75187,-0.41089 1.50376,-0.8218 2.27843,-1.24516 5.18844,-2.46393 10.54612,-2.94931 16.17682,-2.00518 11.83109,4.54722 22.72081,11.82422 33.59256,18.25226 4.60638,2.71765 9.23677,5.38626 13.8925,8.0178 37.9679,21.46771 37.9679,21.46771 41.16315,30.38899 1.51521,6.88305 1.97376,13.54644 1.98395,20.56499 0.007,1.26062 0.007,1.26062 0.0147,2.54671 0.0146,2.75461 0.0216,5.50916 0.0271,8.2638 0.004,1.4206 0.004,1.4206 0.008,2.86989 0.0146,5.00765 0.0243,10.0153 0.0287,15.023 0.004,5.15349 0.0296,10.30672 0.0582,15.46016 0.0188,3.9819 0.0239,7.96375 0.0256,11.94569 0.003,1.89934 0.0107,3.79871 0.0243,5.698 0.0168,2.66249 0.0147,5.32432 0.008,7.98685 0.008,0.7733 0.0188,1.54661 0.0282,2.34338 -0.0511,6.74364 -1.17032,13.24624 -5.86013,18.29284 -4.89532,3.52671 -10.26576,6.40209 -15.5103,9.36588 -1.74635,0.99696 -3.49273,1.99395 -5.23847,2.99199 -1.19528,0.68305 -2.39093,1.36541 -3.58698,2.04708 -7.18552,4.09729 -14.31661,8.28761 -21.45055,12.47405 -20.99343,12.2927 -20.99343,12.2927 -24.13179,10.72207 z"
       fill="#01aecd"
       id="path5-0"
       sodipodi:nodetypes="ccccccccccccccccccccccccccccccccccccccccccccccccccccccccccccc"
       style="display:inline;fill:url(#linearGradient73);fill-opacity:1;stroke-width:1.00569" />
  </g>
  <path
     d="m 298.43302,861.95587 c -3.28962,-0.9334 -5.73261,-2.1535 -8.64699,-3.9364 -1.06168,-0.641 -2.12333,-1.2821 -3.21717,-1.9426 -0.55933,-0.3435 -1.11869,-0.6871 -1.69498,-1.0411 -2.99369,-1.8387 -6.0059,-3.6465 -9.01571,-5.4586 -0.62405,-0.3768 -1.2481,-0.7536 -1.89103,-1.1419 -7.58603,-4.5691 -15.28902,-8.9323 -22.99594,-13.2928 -1.71561,-0.9709 -3.42989,-1.9441 -5.14412,-2.9175 -0.97484,-0.5509 -1.94967,-1.1018 -2.95405,-1.6694 -8.54599,-5.057 -8.54599,-5.057 -9.87432,-7.7161 -0.14403,-2.1912 -0.22333,-4.3867 -0.27362,-6.582 -0.0246,-1.0139 -0.0246,-1.0139 -0.0496,-2.0483 -0.14109,-6.2388 -0.21948,-12.4791 -0.28038,-18.7192 -0.0413,-4.1909 -0.10193,-8.3795 -0.21014,-12.5692 -0.10445,-4.0539 -0.15913,-8.1057 -0.17925,-12.1608 -0.0167,-1.5419 -0.0493,-3.0836 -0.10063,-4.6246 -0.3813,-12.0203 -0.3813,-12.0203 3.19985,-16.1637 2.57063,-1.8344 5.09791,-3.2518 7.94594,-4.6061 l 3.09372,-1.9135 c 0.86316,-0.4866 1.72634,-0.9731 2.61565,-1.4744 1.00334,-0.5713 2.00669,-1.1427 3.04047,-1.7313 1.05176,-0.5934 2.10355,-1.1867 3.18721,-1.7981 7.40946,-4.208 14.75769,-8.4783 21.98534,-12.9935 0.63859,-0.397 1.27714,-0.7939 1.93505,-1.2029 3.76365,-2.3402 3.76365,-2.3402 7.50827,-4.7107 1.72111,-1.0993 3.45405,-2.1799 5.18741,-3.2597 1.47975,-0.9387 1.47975,-0.9387 2.98943,-1.8964 3.26842,-1.4512 4.43017,-1.3925 7.7657,-0.2103 1.94537,0.9605 3.85294,1.9994 5.72899,3.0893 1.12053,0.646 2.24107,1.2921 3.39559,1.9577 1.20985,0.7071 2.41959,1.4144 3.62919,2.1219 1.24996,0.7249 2.50028,1.4492 3.75095,2.1729 2.58771,1.4984 5.17319,3.0006 7.75758,4.5046 3.74487,2.1761 7.50559,4.3234 11.27,6.4654 1.17919,0.673 2.35825,1.3462 3.5372,2.0196 2.21126,1.2627 4.42435,2.5222 6.63948,3.778 l 3.06008,1.7564 2.64756,1.5097 c 1.41841,0.8986 1.41841,0.8986 2.86548,1.8153 0.69242,0.3228 1.38484,0.6455 2.09822,0.9781 2.61462,1.4568 4.14646,2.6453 5.94358,5.0588 1.19746,5.4181 1.05966,10.7814 0.96201,16.295 -0.003,1.6059 -0.003,3.2119 0.003,4.8178 -0.003,3.3582 -0.031,6.7148 -0.0809,10.0726 -0.0629,4.3019 -0.0677,8.6015 -0.0532,12.9038 0.007,3.3129 -0.0119,6.6254 -0.0395,9.9383 -0.0107,1.5861 -0.0147,3.1723 -0.0119,4.7585 -9.6e-4,2.2164 -0.0355,4.43 -0.0789,6.646 -0.0119,1.2598 -0.0263,2.5196 -0.0397,3.8176 -0.65853,3.1935 -0.65853,3.1935 -3.044,5.5381 -2.76002,1.756 -5.52111,3.4548 -8.36964,5.064 -1.12088,0.6366 -2.24173,1.2732 -3.39657,1.9291 -0.59154,0.3333 -1.18305,0.6666 -1.79251,1.01 -1.86161,1.049 -3.72012,2.1035 -5.57783,3.1595 -2.58215,1.4678 -5.16514,2.934 -7.74877,4.3992 -6.17239,3.5037 -12.32654,7.0389 -18.47736,10.5804 -1.1023,0.6314 -2.20463,1.2628 -3.34034,1.9133 -1.53419,0.8836 -1.53419,0.8836 -3.09938,1.7851 l -2.71136,1.5576 c -2.4334,1.3861 -2.4334,1.3861 -4.36249,3.2341 -2.06738,1.257 -2.06738,1.257 -4.98833,1.1334 z"
     fill="#0e0d0e"
     id="path7-9"
     sodipodi:nodetypes="sccsccscccccccccccccccccccccccccccccccccccccccccccccssccccccss"
     style="fill:#000000;fill-opacity:1;stroke-width:1.00569" />
  <text
     xml:space="preserve"
     id="text76"
     style="font-style:normal;font-variant:normal;font-weight:normal;font-stretch:normal;font-size:96px;font-family:Impact;-inkscape-font-specification:Impact;text-align:start;writing-mode:lr-tb;direction:ltr;white-space:pre;shape-inside:url(#rect76);display:inline;fill:#ffffff;fill-opacity:0.721569;stroke-width:0;stroke-dasharray:none"
     transform="matrix(1.8062744,0,0,1,-626.9316,183.18879)"><tspan
       x="670.28516"
       y="205.84804"
       id="tspan1">Apéro
</tspan><tspan
       x="670.28516"
       y="325.84804"
       id="tspan2">Blockchain
</tspan><tspan
       x="670.28516"
       y="445.84804"
       id="tspan3">Samui (FR)</tspan></text>
  <text
     xml:space="preserve"
     style="font-style:normal;font-variant:normal;font-weight:normal;font-stretch:normal;font-size:64px;font-family:Impact;-inkscape-font-specification:Impact;text-align:start;writing-mode:lr-tb;direction:ltr;text-anchor:start;fill:#ffffff;fill-opacity:0.721569;stroke-width:0;stroke-dasharray:none"
     x="581.64551"
     y="769.05518"
     id="text77"><tspan
       sodipodi:role="line"
       id="tspan77"
       x="581.64551"
       y="769.05518"
       style="font-style:normal;font-variant:normal;font-weight:normal;font-stretch:normal;font-size:64px;font-family:'Liberation Mono';-inkscape-font-specification:'Liberation Mono'">Ouvert à tous niveaux</tspan></text>
  <text
     xml:space="preserve"
     style="font-style:normal;font-variant:normal;font-weight:normal;font-stretch:normal;font-size:64px;font-family:Impact;-inkscape-font-specification:Impact;text-align:start;writing-mode:lr-tb;direction:ltr;text-anchor:start;fill:#ffffff;fill-opacity:0.721569;stroke-width:0;stroke-dasharray:none"
     x="581.84186"
     y="854.75"
     id="text77-8"><tspan
       sodipodi:role="line"
       id="tspan77-2"
       x="581.84186"
       y="854.75"
       style="font-style:normal;font-variant:normal;font-weight:normal;font-stretch:normal;font-size:64px;font-family:'Liberation Mono';-inkscape-font-specification:'Liberation Mono'">Sauf aux verres vides</tspan></text>
</svg>
